/* XPM */
static char * IMG_7_xpm[] = {
"128 128 45 1",
" 	c #232B0F",
".	c #2F371F",
"+	c #F900FF",
"@	c #0F1700",
"#	c #3F472B",
"$	c #53573B",
"%	c #5B6347",
"&	c #474F33",
"*	c #171F07",
"=	c #373F27",
"-	c #676B4F",
";	c #6F7357",
">	c #6F5743",
",	c #7B7F63",
"'	c #2F2F2F",
")	c #4B4B4B",
"!	c #4F3B2B",
"~	c #474747",
"{	c #272727",
"]	c #232323",
"^	c #1B1B1B",
"/	c #0B0B0B",
"(	c #070707",
"_	c #131313",
":	c #575757",
"<	c #373737",
"[	c #434343",
"}	c #6F6F6F",
"|	c #5B5B5B",
"1	c #636363",
"2	c #4F4F4F",
"3	c #777777",
"4	c #3B3B3B",
"5	c #8B8B8B",
"6	c #A78F77",
"7	c #9B7F6B",
"8	c #B79F87",
"9	c #9F876F",
"0	c #AF977F",
"a	c #533F1F",
"b	c #2B230F",
"c	c #000000",
"d	c #937B63",
"e	c #BFA78F",
"f	c #838383",
"     .       .       .       .    ++++++++++++++++++++++++++++++++++++++++++++++++++++++++++++  .       .       .       .       ",
".@.#$%$#.@.#$%$#.@.#$%$#.@.#$%$#.@++++++++++++++++++++++++++++++++++++++++++++++++++++++++++++#$%$#.@.#$%$#.@.#$%$#.@.#$%$#.@.#$",
"#.#$$%$$#.#$$%$$#.#$$%$$#.#$$%$$#.++++++++++++++++++++++++++++++++++++++++++++++++++++++++++++$$%$$#.#$$%$$#.#$$%$$#.#$$%$$#.#$$",
"&#&%&&&%&#&%&&&%&#&%&&&%&#&%&&&%&#++++++++++++++++++++++++++++++++++++++++++++++++++++++++++++%&&&%&#&%&&&%&#&%&&&%&#&%&&&%&#&%&",
"#.#%$#$%#.#%$#$%#.#%$#$%#.#%$#$%#.++++++++++++++++++++++++++++++++++++++++++++++++++++++++++++%$#$%#.#%$#$%#.#%$#$%#.#%$#$%#.#%$",
"$.& .%. $.& .%. $.& .%. $.& .%. $.++++++++++++++++++++++++++++++++++++++++++++++++++++++++++++ .%. $.& .%. $.& .%. $.& .%. $.& .",
"%#%$%.%$%#%$%.%$%#%$%.%$%#%$%.%$%#++++++++++++++++++++++++++++++++++++++++++++++++++++++++++++$%.%$%#%$%.%$%#%$%.%$%#%$%.%$%#%$%",
". . &$& . . &$& . . &$& . . &$& . ++++++++++++++++++++++++++++++++++++++++++++++++++++++++++++ &$& . . &$& . . &$& . . &$& . . &",
"@@* === @@* === @@* === @@* === @@++++++++++++++++++++++++++++++++++++++++++++++++++++++++++++ === @@* === @@* === @@* === @@* =",
"--%-;--------%-----;;;;;;---->---;++++++++++++++++++++++++++++++++++++++++++++++++++++++++++++---%----------------;----;,,;--%-;",
"-%$$%%$$&$$$$'#&$$%-;;;;;%#$$$;$%%++++++++++++++++++++++++++++++++++++++++++++++++++++++++++++%)&$$$%%$#$$$;%$&$%%%%-;;,;,;-%$$%",
"-&%%%$#$$$$%$##&$%--;-;;--&$;%%%-;++++++++++++++++++++++++++++++++++++++++++++++++++++++++++++%$&%$#$%$#&&$;%$$$$%%--;;;;;--&%%%",
"&$&&&=!~&&&&&&&#&$$$$%%%%%&&$%$&%%++++++++++++++++++++++++++++++++++++++++++++++++++++++++++++&&#&===&&#=&&&&&&&&$$$$$$%$$&&$&&&",
"{{]]^^]{'{'']^]]']]]^]^]^^^^{{]^^^++++++++++++++++++++++++++++++++++++++++++++++++++++++++++++/(/^^^/^^^^^^^^^']_^^^__]]]]]^]]^^",
":)~)<<':)[)<~)~[~[[[<<<[<'<<<''<''++++++++++++++++++++++++++++++++++++++++++++++++++++++++++++^^^]]_^'[[']]'<[<''{{'']<<<]{'[<']",
"}}}}|12|3}))3}|}|2})|)[|2[|[444[[[++++++++++++++++++++++++++++++++++++++++++++++++++++++++++++''{']{'4)[4{]{44)[44[)[[}))[[[~)[2",
"}}|}|}2|}}|||2|}}222}|2|[22)4'4[[[++++++++++++++++++++++++++++++++++++++++++++++++++++++++++++44444444[['''4[[[[4{[[[[))[))[[2|1",
"|@@@2))25|3}||}}}|2|21122[2[{]'4[[++++++++++++++++++++++++++++++++++++++++++++++++++++++++++++[[[[)))[[4'')[[2||)[[[[4|2)22[@@@|",
" =## 2[))2|||}}}|2)[2|22)2)44{{42|++++++++++++++++++++++++++++++++++++++++++++++++++++++++++++))[))222[4')|}|3}||2)[[22222| =## ",
"$$%%$&.*[)2)|}}||))22)))2|22['{{[[++++++++++++++++++++++++++++++++++++++++++++++++++++++++++++|)[)221|2))22231|}512))2|2* =$$%%$",
"%%-%%-%&.**))}222)*      *@ 2)'{4[++++++++++++++++++++++++++++++++++++++++++++++++++++++++++++|)))22 @*. =.* * |3}2)222 &$%%%-%%",
";,6,;%-$#=# *}2*.#$ &&&$&#=  *'444++++++++++++++++++++++++++++++++++++++++++++++++++++++++++++[)[)* .=.=#=$$ $&#*}|@*)#=%-%;,6,;",
";787;%-;%$&  . .%;#$%-$%$=&==.*[[)++++++++++++++++++++++++++++++++++++++++++++++++++++++++++++[))*.==&$&&--%%#;&&  . ##%-;;;787;",
";969;--;;$$=$%$%%&%;,069;-%$$&.*[2++++++++++++++++++++++++++++++++++++++++++++++++++++++++++++22*.&$$%-;,60;%&$-;&%$=##;-;;;969;",
",686,;;--$&#$;%,,.-;,00009,-%$=.2|++++++++++++++++++++++++++++++++++++++++++++++++++++++++++++22 #$--,,6000,;-.,0%;-%$#$%;;,686,",
",686,,;;$;;$;6-8,=%;,,,,,96,;%$=*2++++++++++++++++++++++++++++++++++++++++++++++++++++++++++++|* &&%,6,-;,,,;-=;6-0%-;$$-%;,686,",
",969,,;--;$-;8;8; &%-;,-;,,6,--ab2++++++++++++++++++++++++++++++++++++++++++++++++++++++++++++| #$-;,,,--,;;%$=;0%8&--;%;;,,969,",
",,6,,,;;;;;;%6;6;=%$&%;-;;,,,-%&.|++++++++++++++++++++++++++++++++++++++++++++++++++++++++++++2.$-;,,,;;-;%%$==;-%;%-%;%;;,,,6,,",
",,9,;;-;;;%-%,-,; $%$$%;-;;;,,;$&}++++++++++++++++++++++++++++++++++++++++++++++++++++++++++++).$$;,;;;-;%$$%$ ;;-;#$-;--;;,,9,;",
",,,,,;;;;;;;%,%;,@=$&$&%$%%;,,;%&1++++++++++++++++++++++++++++++++++++++++++++++++++++++++++++2.&%,,;%%$%&$&$=@,%%,$--,,-;-,,,,,",
";,,,;-;,;;;;%-$%; @=. .##%%-;;%&.|++++++++++++++++++++++++++++++++++++++++++++++++++++++++++++2.&%,;-%%##. .=@ $$$-%;;,,,--;,,,;",
";,;,;-;69;,%-#;=%&@   **=&#&;,;%.2++++++++++++++++++++++++++++++++++++++++++++++++++++++++++++2=$-,;&&&=**   @&&.;#-%,;96;;;,;,;",
"96;69;-0,;;$;#& #%.@***@**.%;;;$=2++++++++++++++++++++++++++++++++++++++++++++++++++++++++++++2.$-,-%#**@@**@.%# &#;$;;,0-,96;69",
",0;0,;%;-,&=%$..*== ****}* $-%%#.[++++++++++++++++++++++++++++++++++++++++++++++++++++++++++++) #&;%$.*1@@@* ==*..$$=&,-;%;,0;0,",
";;%;;;$&$$=#$$@ **. ***@}3*=$,%.*2++++++++++++++++++++++++++++++++++++++++++++++++++++++++++++11.%;$=*12@@@* .** @$%# $$&$;;;%;;",
"$%&%$&&&#.&%$$  @*@**=*}}}3@=-&  1++++++++++++++++++++++++++++++++++++++++++++++++++++++++++++}} &.=@3|22@=@*@*@. $%$=*#&&&$%&%$",
"=#.#==. .$%-&%= @@ @@22|}}3*.&@*12++++++++++++++++++++++++++++++++++++++++++++++++++++++++++++1}*.&.*|2)4[)@@@@*.=%-&&$. .==#.#=",
"==.== c.$;%;#%&=@*.@)2|2|}3*@ @|||++++++++++++++++++++++++++++++++++++++++++++++++++++++++++++|1}*. *2)4'4[2*@@*=&%$;%;$.c ==.==",
"%%&%%#.$;;-;#%$#@ .@2222|}}*@@*11|++++++++++++++++++++++++++++++++++++++++++++++++++++++++++++2||****|)[44))2@@*#$$#;-;;$.#%%&%%",
"6;%,6;%,%,--&$%#@.@22[[2|1}*@@111|++++++++++++++++++++++++++++++++++++++++++++++++++++++++++++2111@@*|22222))@@*#%$#--,%,%;6;%,6",
"6,;,6,d,$-%&=#%.@*2[2[)22|2@@@||}|++++++++++++++++++++++++++++++++++++++++++++++++++++++++++++22}|1@*1|21}}|))@ .%#=&%-$,d,6,;,6",
"6,-,6dd;$&#==&$.*@2))[4)22|@@1||3|++++++++++++++++++++++++++++++++++++++++++++++++++++++++++++[[||1}@}|21}||))@=.$&==#&$;dd6,-,6",
"8,-,80-,999;$&=&= @)[2[[222|11|)}}++++++++++++++++++++++++++++++++++++++++++++++++++++++++++++[)|11}}||22||2)|@=&=&$,,99,-08,-,8",
"e,&6e-98e806&.&%-$.@[|2[222|11[22|++++++++++++++++++++++++++++++++++++++++++++++++++++++++++++22|||11|22))22|@$,%&.&608e89-e,&6e",
"-6&0-,9d,,%& .$,-;-#@)2[)2|2|11222++++++++++++++++++++++++++++++++++++++++++++++++++++++++++++221|2||222)[)2@-,-&$..&%,,d9,-6&0-",
"$d d$9%&== *.&;;,%$.@|)[)2|2211122++++++++++++++++++++++++++++++++++++++++++++++++++++++++++++[2}||2||2)[)2@&;;$%;&.*===&%9$d d$",
".&@&.*=#,$ c=,%,;;#.@)[))2222|11|2++++++++++++++++++++++++++++++++++++++++++++++++++++++++++++)|}||||2|2)2|@#-;&,%$.c&,%#=*.&@&.",
"c***cc = .*=$,,,,,;.*[[)|2[22|112)++++++++++++++++++++++++++++++++++++++++++++++++++++++++++++|||||2||}1))|@=-%,&,,=.*. = cc***c",
"&.*.&$  &#.$$&%-,-$#*44)22[))2||22++++++++++++++++++++++++++++++++++++++++++++++++++++++++++++2|||22|}}|)))*#$,,=%&%&.#&  $&.*.&",
",%.%,%.-,%.@ .&$%$..[[[[22)[2||2||++++++++++++++++++++++++++++++++++++++++++++++++++++++++++++2}||221}||222@ .$%... @.%,-.%,%.%,",
"8%&%8;@%;-.@ * .&. *2[44[|))||[|||++++++++++++++++++++++++++++++++++++++++++++++++++++++++++++||}}|2|}|||)|)@ .&  * @.-;%@;8%&%8",
"6;&,e,=,,&,.@**    2|)[444))}|22|2++++++++++++++++++++++++++++++++++++++++++++++++++++++++++++|1}}1||}22))2|2@   **@.,&,,=,6;&,e",
"86-6e0%&8,%$. @* @2||2))'''4)))222++++++++++++++++++++++++++++++++++++++++++++++++++++++++++++2221}||||)'[))2[@  @ .$%,8&%;86-6e",
"86%68e,&e,,%$&. *2||}2)[''{''4[[[)++++++++++++++++++++++++++++++++++++++++++++++++++++++++++++4[))2222)']]4))))**.&$%,%,.#e86%68",
"-,*,-%6%8%.=&#.. }1|}|))''''{{{{''++++++++++++++++++++++++++++++++++++++++++++++++++++++++++++4)2)))[[4''4)2}|2*..#&=%%8#,,-,*,-",
".%@%. 0%e.;&.&$=@1||12|))'{''']]]'++++++++++++++++++++++++++++++++++++++++++++++++++++++++++++)2|2))[']'')||1|2*=$&.&;.e%0 .%@%.",
"*****c,;9&,;*.& @1212||)[]]][['''4++++++++++++++++++++++++++++++++++++++++++++++++++++++++++++|||||2[4[[[))211|*=&.@;,&9;;c*****",
"cccccc=,%&&@*.&=@1|||2))[']]4))44[++++++++++++++++++++++++++++++++++++++++++++++++++++++++++++)1|1|2))))))))21|*=&.*@&&%,=cccccc",
"cccccc$,%&.8. #.@|1|2[[))4]]{[)2))++++++++++++++++++++++++++++++++++++++++++++++++++++++++++++)2|22))2||||22221*## .8.&%,$cccccc",
"9c%c9=;;,.#8% $#*22[[))||)'{]42|}1++++++++++++++++++++++++++++++++++++++++++++++++++++++++++++))22[4[|222||22)|*#$ %8@.,;;=9c%c9",
";;-;;$&##@@6-=;%.@22|22}|24'''[2|2++++++++++++++++++++++++++++++++++++++++++++++++++++++++++++|}||2)[))2[)))))@#&;=-6@@##&$;;-;;",
"=ccc=.#$@@@,,.,%#.||||[||2)[[[[))2++++++++++++++++++++++++++++++++++++++++++++++++++++++++++++[2|22)[[))[<[)4) #%,.,,@@@$#*=ccc=",
";*c*;&.#*#@d; ,%#=*2|12||))))))))[++++++++++++++++++++++++++++++++++++++++++++++++++++++++++++22|||2)[2)2[[[)*.#-, ;d@#*#.&;*c*;",
";=c=;%.*=;=;%*,%#=*[2|212)222222))++++++++++++++++++++++++++++++++++++++++++++++++++++++++++++22|2[2~)[[2[))2*=#%,*%;=;=*#%;=c=;",
"%&c&%;*==%.-%*,%# @)222}22||2|22)[++++++++++++++++++++++++++++++++++++++++++++++++++++++++++++)222[2[)[[22222@=#%,*&%.%==*;%&c&%",
"&$ $&%.* & =.*,%= )2)2||2|||}12|))++++++++++++++++++++++++++++++++++++++++++++++++++++++++++++)22222[2)22|)[<~ =;,*.= & *.%&$ $&",
",-%-,-=&&-$**&%%= )222||22|}}||)2)++++++++++++++++++++++++++++++++++++++++++++++++++++++++++++)222|222211[)4{< =%%&**$-&&=-,-%-,",
"-$=$-& #%,;=#=%& *)||2}|||1}||22|2++++++++++++++++++++++++++++++++++++++++++++++++++++++++++++))222|||12))[4{{* &%=.=$;$#.&-$=$-",
"# @ #. @.%&## =.*~)|2)1}}12222||||++++++++++++++++++++++++++++++++++++++++++++++++++++++++++++222)))222)4[[4{{{*.=  #=$.. .# @ #",
" @@@ @ @. .. @ *2|2222111}2))22222++++++++++++++++++++++++++++++++++++++++++++++++++++++++++++)[[[)22[2)'[2[4{{{**@=..  @ @ @@@ ",
"@@@@@@.4'@**@.|2||222|}1|2)))2))))++++++++++++++++++++++++++++++++++++++++++++++++++++++++++++[)))222)24{4[2[4{4[)2@***2[.@@@@@@",
"[444'''''44[)|2)||2)2|1|||||112))4++++++++++++++++++++++++++++++++++++++++++++++++++++++++++++)2))222)[{{{[22)[))22|||2)[[::2:~[",
"[4444[44'4)[))4[}|22||222|||}}12)'++++++++++++++++++++++++++++++++++++++++++++++++++++++++++++[222222)[4<4[2}|212222|2))~[2[[2[)",
"[4[)))))))22)))2|12|||22))2|||}|)'++++++++++++++++++++++++++++++++++++++++++++++++++++++++++++[22|22)[[[[[2|}11|2)4)222224[[<[[)",
"))||||}222||22)2|12||111))2|}22}24++++++++++++++++++++++++++++++++++++++++++++++++++++++++++++')2222{<[[[2|11||1|)4)222|2|[<44[2",
"|}1111|2221|22)2)[)2|||124)||2212)++++++++++++++++++++++++++++++++++++++++++++++++++++++++++++'[22)2<{<[2||||2|1|)4)2||:|}[[444)",
"1111}1|22|1|2||2)]4)22||)[[2|22222++++++++++++++++++++++++++++++++++++++++++++++++++++++++++++[[)22)4{4~||1|~22||2[)2||||}[[4'44",
"1||1}}||111|2|11)4])2222)442||)2||++++++++++++++++++++++++++++++++++++++++++++++++++++++++++++[))2))44)2||||2)[~22)22|}}}1[244{'",
"||111|||1}11|11}|2))))[))[))222}||++++++++++++++++++++++++++++++++++++++++++++++++++++++++++++|))222422222222~<[[))22|}}312[['{{",
"}}111121}}11|}1}||1|)))))4))2|}}|:++++++++++++++++++++++++++++++++++++++++++++++++++++++++++++2))|2)21|22222)))[44)22|}}}}2[['{{",
"2||:2221}1|1}}1}~22||||222))||1|||++++++++++++++++++++++++++++++++++++++++++++++++++++++++++++22)[))22)2|2222[444)22|||}1|2[[{{{",
"||}}111}}}1|[][)2{|}}}|}2:[2}|}}2}++++++++++++++++++++++++++++++++++++++++++++++++++++++++++++2)[44[)[2212|}2[{{)22|2222||122'{{",
"|}}|}||}}}}2'[}|12}|1}|}}:22}}}3|}++++++++++++++++++++++++++++++++++++++++++++++++++++++++++++|)4{{{4)22[2[||[{4)|||)2)2||1)[4''",
"||2|}2)}}|2[[|}}})||}}}}}22|3}|}}}++++++++++++++++++++++++++++++++++++++++++++++++++++++++++++|)4'][[[[[|[[))[][211|2)[)))))))[[",
"||}1}}|||2[222}}}[|)}}}}|2)2222}}1++++++++++++++++++++++++++++++++++++++++++++++++++++++++++++)4[4[{[[~2)|[))[)23}}|)[[)))[[)[22",
"2|3}}}33|2)[2|}|[~}1}}}}}}}2)22|22++++++++++++++++++++++++++++++++++++++++++++++++++++++++++++)[2[<2|[2[2[|)[[213312)[[[|)[4)[|2",
")233}}}f}2[[[}}[||1}}}}}}}}|)[[[[)++++++++++++++++++++++++++++++++++++++++++++++++++++++++++++[){2[2|||2)22)42|3|||2)){[||)44[)2",
"')||}}33[<2[4||422}|}}}}}}}}){[)21++++++++++++++++++++++++++++++++++++++++++++++++++++++++++++[[''[||[||[22[[||11||2)2[[||)[['4)",
"[))22|}|[2[{[[[2[2}}}}}|||||4[))22++++++++++++++++++++++++++++++++++++++++++++++++++++++++++++)<{~))))|2|22)))|11|1|[2[[)2))[[[4",
"2}||222)))){2{[:||}}}|)[[[)))}|222++++++++++++++++++++++++++++++++++++++++++++++++++++++++++++)2[2)[[22||)))221333122[[[[|)))2)4",
"|3}}3})[2))[|222|1}|))2[)|1}||22}|++++++++++++++++++++++++++++++++++++++++++++++++++++++++++++222[2)22)2|[[)||1}}}12)2)2|244)|)'",
"}}|||}|22[))[))21}|[[22[)|}}}122}2++++++++++++++++++++++++++++++++++++++++++++++++++++++++++++||22|21|)))4421}11}3|2))2|||4[)2)'",
"}222|})[[[[[[)[21|2[2|1|[[|}}|2|2)++++++++++++++++++++++++++++++++++++++++++++++++++++++++++++|||||2|2)4[]42||111}}|2)2|1|)))2[[",
"|2)|||[<|:[[[))2|2[2|}1124[22|}}||++++++++++++++++++++++++++++++++++++++++++++++++++++++++++++}}|}|2})4']][2)|}22|}1|))1}}2)2)[[",
"}1[{2|2[2|2)[[)[)[2||}}||)){[|}}}|++++++++++++++++++++++++++++++++++++++++++++++++++++++++++++}}|}|)2)'{]'[||)2))21|2)42||[[[)42",
"1}|[{[|2[)22))['42||1111}24{]21}}}++++++++++++++++++++++++++++++++++++++++++++++++++++++++++++}}}||||2']]4)1}|)2)))2))44222)[)|2",
"}}2[[~||[[22)[[22|111|1|24]]')|1||++++++++++++++++++++++++++++++++++++++++++++++++++++++++++++}|}}|22)']4)21}}|)['42))|2)|}||22|",
"1}[^{[2|2222[[)2|||}1}}|2[']')|1|}++++++++++++++++++++++++++++++++++++++++++++++++++++++++++++}|}|}))4{{[21}}11|)44)))|2221||122",
"|}{^[[2222))2[)|22||111||)4{4)21}}++++++++++++++++++++++++++++++++++++++++++++++++++++++++++++}1[}244'{4)|}11}}}24)[[[1222121}22",
"|1{'}2[2)2[[2))))2|||||}|)['4)2|||++++++++++++++++++++++++++++++++++++++++++++++++++++++++++++22}2)4'4442}||}|}2[[)4[4||222|||||",
")}[4222222[222))2||}||||2{4[[[2222++++++++++++++++++++++++++++++++++++++++++++++++++++++++++++)<{4['444):|}}|}}|}}|)))|1|2))||||",
"<}|2222||~22|2))222222222'44[)2222++++++++++++++++++++++++++++++++++++++++++++++++++++++++++++){{[[4''4)|}}1[3|1}312))21|2)2||||",
"')[)2|222[2[[[[[22))))))[4'''4)222++++++++++++++++++++++++++++++++++++++++++++++++++++++++++++[44[2){^^{2|}1}}||)112)[[|22))}}||",
"4[[[222222[~[{[[[24[4444[{{]^'))))++++++++++++++++++++++++++++++++++++++++++++++++++++++++++++444[2'{]^{[|}3}3}22|12)[[[22))2111",
"[)[[~[2||2[2[[[[[[''''<4[{]]^{[2{[++++++++++++++++++++++++++++++++++++++++++++++++++++++++++++<4[[[{{{^_4)|||2221}3|[4[[|||))13}",
"~2[[[[)2|2|222[424''''{4<{'{{{|]4^++++++++++++++++++++++++++++++++++++++++++++++++++++++++++++<4[2{{{{]^<)2||[[213}2444[|}}2)1}3",
"[2~[{22||2||~~[[)4'''{'4[~{{[[2{[]++++++++++++++++++++++++++++++++++++++++++++++++++++++++++++4[[2[[]_]'{)222~2213|[42)[}}}|21}3",
"22)[[21||2|222~[~)44[4[[[[{{[[2[^2++++++++++++++++++++++++++++++++++++++++++++++++++++++++++++2[<22'^^''^2|2222}}}2)[2)2}}}1|1}3",
"[2)[22||2||22|[)22)))[4{{<{[2[[[{2++++++++++++++++++++++++++++++++++++++++++++++++++++++++++++^[|1)^{4[4'2[2||2|3}244[22233|}}}}",
"'2222|||||1||1|222222)4'{^{[[[2|[[++++++++++++++++++++++++++++++++++++++++++++++++++++++++++++^[||2{{4[[{[2|2||}}3[444[|2|}|}}}}",
"[2|||||||||1||1|2||222)']_^{[222[[++++++++++++++++++++++++++++++++++++++++++++++++++++++++++++{[22[[{{{[[2|)2||}|324444[[)||}|1}",
"[)|||||||1111|11|:|||2)4']^{[[~[[[++++++++++++++++++++++++++++++++++++++++++++++++++++++++++++[22[<[|[][22222|}|1324[[44422|}||}",
"[4)|||||111}11}11||||2[''^{'''[22[++++++++++++++++++++++++++++++++++++++++++++++++++++++++++++[22[[22[{[222|22}21}24[|[44[2||}}1",
"['[)||||1|1}11}}111||2[4[{{{[{[[2)++++++++++++++++++++++++++++++++++++++++++++++++++++++++++++[[[{{['['222|2||2|4|)4[2244))1|}12",
"[['[)||1111}1112)2||22))[[[{[[22)2++++++++++++++++++++++++++++++++++++++++++++++++++++++++++++{[[[{'{'2|[|2221}||1[44:|)[2[}21|)",
"|)4'[|11|||||2)[4[22[[[[4[[{[22))[++++++++++++++++++++++++++++++++++++++++++++++++++++++++++++{{[~~'{2}|~~[[4}|1}}})4[22|33[[)))",
"1|[4''[['[))22)4444[[[[44[[[2)2)2|++++++++++++++++++++++++++++++++++++++++++++++++++++++++++++[{{[[[[222[[[22}}}}f3)4)|22}5|{'[2",
"}12)'4''[)))2|2[4''4[[[2[[[))22)2|++++++++++++++++++++++++++++++++++++++++++++++++++++++++++++2{<[[[222['[[2}3}|13}[)2}22|}24]42",
"}33242222||||11|)4[[)222))[22)222|++++++++++++++++++++++++++++++++++++++++++++++++++++++++++++|[[[[[{2|[[2||}}||13}1)2|}|[2)4]'[",
"}33|2}111111|111|)4[)||22)))222|||++++++++++++++++++++++++++++++++++++++++++++++++++++++++++++2[[)2[{4)[2|||}1||1}}12)23|)))4{'[",
"}}}|211111|||2||2)[')|||2222||||||++++++++++++++++++++++++++++++++++++++++++++++++++++++++++++2222[{{[[[22|||}||1}1|2222)))[4'4[",
"3}122|}1}}|2|2|2|2)[)|1111|2111112++++++++++++++++++++++++++++++++++++++++++++++++++++++++++++|22{2|^[|22||||1|111|22)))4)2[<'44",
"3}1)[||}}|||2[2||2|))211}1|11}}}1|++++++++++++++++++++++++++++++++++++++++++++++++++++++++++++}|]|<2[[[22[2[|111}}}12)2)22}[44'4",
")~[<<['<:[<<<<<<<<[<'<~))[<<[~~~~)++++++++++++++++++++++++++++++++++++++++++++++++++++++++++++)[]]^''''''[''<[~):::)[<<[<[<'{{]]",
"--%-;--------%-----;;;;;;---->---;++++++++++++++++++++++++++++++++++++++++++++++++++++++++++++---%----------------;----;,,;--%-;",
"-%$$%%$$&$$$$'#&$$%-;;;;;%#$$$;$%%++++++++++++++++++++++++++++++++++++++++++++++++++++++++++++%)&$$$%%$#$$$;%$&$%%%%-;;,;,;-%$$%",
"-&%%%$#$$$$%$##&$%--;-;;--&$;%%%-;++++++++++++++++++++++++++++++++++++++++++++++++++++++++++++%$&%$#$%$#&&$;%$$$$%%--;;;;;--&%%%",
"&$&&&=!~&&&&&&&#&$$$$%%%%%&&$%$&%%++++++++++++++++++++++++++++++++++++++++++++++++++++++++++++&&#&===&&#=&&&&&&&&$$$$$$%$$&&$&&&"};
