/* XPM */
static char *IMG_5.xpm[] = {
/* columns rows colors chars-per-pixel */
"128 128 44 1 ",
"  c black",
". c #070707",
"X c #0B0B0B",
"o c #0F1700",
"O c #171F07",
"+ c #131313",
"@ c #1B1B1B",
"# c #2B230F",
"$ c #232B0F",
"% c #2F371F",
"& c #232323",
"* c #272727",
"= c #2F2F2F",
"- c #373F27",
"; c #373737",
": c gray23",
"> c #533F1F",
", c #4F3B2B",
"< c #3F472B",
"1 c #474F33",
"2 c #53573B",
"3 c #434343",
"4 c gray28",
"5 c #4B4B4B",
"6 c gray31",
"7 c gray34",
"8 c #5B5B5B",
"9 c #6F5743",
"0 c #5B6347",
"q c #676B4F",
"w c #6F7357",
"e c gray39",
"r c #6F6F6F",
"t c #7B7F63",
"y c #777777",
"u c #937B63",
"i c #9B7F6B",
"p c #9F876F",
"a c #A78F77",
"s c #AF977F",
"d c #838383",
"f c #8B8B8B",
"g c #B79F87",
"h c #BFA78F",
/* pixels */
"$$$%$$$$$$$%$$$$$$$%$$$$$$$%$$$$$$$%$$$$$$$%$$$$$$$%$$$$$$$%$$$$$$$%$$$$$$$%$$$$$$$%$$$$$$$%$$$$$$$%$$$$$$$%$$$$$$$%$$$$$$$%$$$$",
"%<202<%o%<202<%o%<202<%o%<202<%o%<202<%o%<202<%o%<202<%o%<202<%o%<202<%o%<202<%o%<202<%o%<202<%o%<202<%o%<202<%o%<202<%o%<202<%o",
"<22022<%<22022<%<22022<%<22022<%<22022<%<22022<%<22022<%<22022<%<22022<%<22022<%<22022<%<22022<%<22022<%<22022<%<22022<%<22022<%",
"1011101<1011101<1011101<1011101<1011101<1011101<1011101<1011101<1011101<1011101<1011101<1011101<1011101<1011101<1011101<1011101<",
"<02<20<%<02<20<%<02<20<%<02<20<%<02<20<%<02<20<%<02<20<%<02<20<%<02<20<%<02<20<%<02<20<%<02<20<%<02<20<%<02<20<%<02<20<%<02<20<%",
"1$%0%$2%1$%0%$2%1$%0%$2%1$%0%$2%1$%0%$2%1$%0%$2%1$%0%$2%1$%0%$2%1$%0%$2%1$%0%$2%1$%0%$2%1$%0%$2%1$%0%$2%1$%0%$2%1$%0%$2%1$%0%$2%",
"020%020<020%020<020%020<020%020<020%020<020%020<020%020<020%020<020%020<020%020<020%020<020%020<020%020<020%020<020%020<020%020<",
"%$121$%$%$121$%$%$121$%$%$121$%$%$121$%$%$121$%$%$121$%$%$121$%$%$121$%$%$121$%$%$121$%$%$121$%$%$121$%$%$121$%$%$121$%$%$121$%$",
"O$---$ooO$---$ooO$---$ooO$---$ooO$---$ooO$---$ooO$---$ooO$---$ooO$---$ooO$---$ooO$---$ooO$---$ooO$---$ooO$---$ooO$---$ooO$---$oo",
"qqqq0qqqqqqqqqqqqqqqqwqqqqwttwqq0qwqqqqqqqq0qqqqqwwwwwwqqqq9qqqwqqqq0qqqqqqqqqqqqqqqqwqqqqwttwqq0qwqqqqqqqq0qqqqqwwwwwwqqqq9qqqw",
"w051222002<222w02120000qwwtwtwq022002212222=<1220qwwwww0<222w200w051222002<222w02120000qwwtwtwq022002212222=<1220qwwwww0<222w200",
"w02102<202<112w0222200qqwwwwwqq10002<222202<<120qqwqwwqq12w000qww02102<202<112w0222200qqwwwwwqq10002<222202<<120qqwqwwqq12w000qw",
"111<1---11<-11111111222222022112111-,41111111<122220000011202100111<1---11<-11111111222222022112111-,41111111<122220000011202100",
"===**&@@+@@+@++X+=&@@&@&=&====**&&@@&*=*==&@&&=&&&@&@&@@@@**&@@@+X.X@@@X@@@@@@@@@=&+@@@++&&&&&@&&@@@@@@@@@@&@@@@@@@XX@@@@@@++@&&",
"55544;:;=*&@***@*35;=;555444457545;;=7535;45434333;;;3;=;;;==;==@@@@&&+@=33=&&=;3;==**==&;;;&*=3;=&&*==3=;;33;;;;=**@=;;=***==;;",
"e86ee6855:==::::33r636yryyeeryrrrr8e68yr55yr8r86r585386383:::333===*=&*=:53:*&*::53::3533r5533345363=:56336866633::565553:385536",
"868e886653=::33:336333yrryeryyrr8r8r68rr88868rr666r8683665:=:333:::::::::33===:3333:*3333553553368e6:=56558883:::::83663:::66:36",
"8e7888ee633:35333533365ryrrrrr8ooo6556f8yr88rrr8686ee66363*&=:33:333355533:==53368853333:865663ooo86333666665::::::558885=::3:*5",
"6er78eee855333335338533r66ryre$-<<$63556888rrr86536866565::**:683553556663:=58r8yr886533666668$-<<$866666655::::::::566666::=:35",
"6836yree665333336636556865rO$-220021%O35658rr88556655568663=**338853566e8655666ye8rfe655686O$-220021%O8655:::;=:::::3666863*::35",
"5538re8$oO%$-%O$O$366663=8$12000q00q01%OO55r6665O$$$$$$Oo$65=*:38855566$oO%$-%O$O$8yr65666$12000q00q01%OO3===;==O$$$$$$Oo$633333",
"655r8O$%-%-<-22$21<O66oO*<-0q0wtatw0q2<-<$Or6O%<2$11121<-$$O=:::33535O$%-%-<-22$21<Or8oO5<-0q0wtatw0q2<-<$O:=O%<2$11121<-$$O3333",
"6668O%--1211qq00<w11$$%$<<0qwwwigiw0qw021$$%$%0w<20q202-1--%O3356355O%--1211qq00<w11$$%$<<0qwwwigiw0qw021$$%$%0w<20q202-1--%O335",
"666O%1220qwtasw012qw102-<<wqwwwpapwqqww22-2020010wtsapwq0221%O36866O%1220qwtasw012qw102-<<wqwwwpapwqqww22-2020010wtsapwq0221%O55",
"668$<2qqttassstwq%ts0wq02<20wwtagatwwqq21<2w0tt%qwtssssptq02-%68866$<2qqttassstwq%ts0wq02<20wwtagatwwqq21<2w0tt%qwtssssptq02-%66",
"68O$110tatqwtttwq-waqs0qw22q0wtagattww2ww2waqgt-0wtttttpatw02-O688O$110tatqwtttwq-waqs0qw22q0wtagattww2ww2waqgt-0wtttttpatw02-O3",
";3$<2qwtttqqtww02-ws0g1qqw0wwttpapttwqqw2qwgwgw$10qwtqwttatqq>#668$<2qwtttqqtww02-ws0g1qqw0wwttpapttwqqw2qwgwgw$10qwtqwttatqq>#3",
"88%2qwtttwwqw002--wq0w0q0w0wwtttatttwwwwww0awaw-0210wqwwtttq01%886%2qwtttwwqw002--wq0w0q0w0wwtttatttwwwwww0awaw-0210wqwwtttq01%3",
"8e%22wtwwwqw02202$wwqw<2qwqqwwttptwwqwww0q0tqtw$20220wqwwwttw21r85%22wtwwwqw02202$wwqw<2qwqqwwttptwwqwww0q0tqtw$20220wqwwwttw216",
"ee%10ttw00201212-ot00t2qqttqwqtttttwwwwwww0t0wto-21210200wttw01e86%10ttw00201212-ot00t2qqttqwqtttttwwwwwww0t0wto-21210200wttw018",
"er%10twq00<<%$%-o$222q0wwtttqqwtttwqwtwwww0q20w$o-%$%<<00qww01%836%10twq00<<%$%-o$222q0wwtttqqwtttwqwtwwww0q20w$o-%$%<<00qww01%8",
"ee-2qtw111-OO$$$o11%w<q0twpawwwtwtwqwapwt0q<w-01o$$$OO-1<1wtw0%686-2qtw111-OO$$$o11%w<q0twpawwwtwtwqwapwt0q<w-01o$$$OO-1<1wtw0%8",
"er%2qtq0<OOooOOo%0<$1<w2wwtsqtpawapwqstww2w<1$<0%oOOOoOO%0www2-666%2qtq0<OOooOOo%0<$1<w2wwtsqtpawapwqstww2w<1$<0%oOOOoOO%0www2-6",
"er$<1w02%OroooO$--O%%22-1tqw0wtswstw0wqt1-02%%O--$OOOOrO$2q00<%355$<1w02%OeoooO$--O%%22-1tqw0wtswstw0wqt1-02%%O--$OOOO8O$2q00<%6",
"6er%0w2-O58oooO$%OO$o20<$2212www0www2122-<22o$OO%$OOOoryO-2t0%O66ee%0w2-Oe6oooO$%OO$o20<$2212www0www2122-<22o$OO%$OOOo65O-2t0%O6",
":68$1%-ore66o-oOoOo%$202-O<11120102111<%1022$$oOoOO-Orrryo-q1$$eerr$1%-oy866o-oOoOo%$202-O<11120102111<%1022$$oOoOO-O5558o-q1$$:",
"=35O%1%Or8356eooooO%-0q112%$%--<%<--%$%20q10-$oo$oo668rryO%1oOe6eerO%1%O865:35ooooO%-0q112%$%--<%<--%$%20q10-$oo$oo586866O%1oO**",
"@==5O%$Oe67r888OooO-102w0w2% $--%--$ %2w0w<01-oO%o56868ryOo$o88858erO%$O65:=:36OooO-102w0w2% $--%--$ %2w0w<01-oO%o6666765Oo$o*&*",
"@=68OOOO88886885ooO<22<wqww2%<00100<%2wwqw<02<o$%o66668rrOooOee86688OOOO853::556ooO<22<wqww2%<00100<%2wwqw<02<o$%o686555:OooO***",
"=5eerooO65:3r853ooO<02<qqt0t0waw0taw0t0tqq120<o%o663368erOooeee866eeeooO86666655ooO<02<qqt0t0waw0taw0t0tqq120<o%o6665553:Ooo=**=",
":6rerroO655545:**o$%0<-10q2tutatwtatut2q01-<0%oO636356686ooo88r8866r8eoOe86err855o$%0<-10q2tutatwtatut2q01-<0%oO333663:35ooo:=**",
"68rrrreo6685:====o-%21--<12wuuatqtauuw21<--12%Oo6553:5668ooe88y883388eror86er8855o-%21--<12wuuatqtauuw21<--12%Oo:3333::3eoo::*&*",
"*6r8e86668655:==3o-1-12ttpptqsgtqtgsqtpppw21-1-$o536336668ee85rr6358eerr886688658o-1-12ttpptqsgtqtgsqtpppw21-1-$o333:::66re3=&&*",
"7@e8866666865==:o2t01%1asghgpqht1ahqpghgsa1%10q2%o38636668ee3668866888ee86655668o2t01%1asghgpqht1ahqpghgsa1%10q2%o:::::36885:=**",
"*666666888886==oqtq12%%10ttuptqa1sqtputt01$%2tqwq<o56356868ee666866e86886665356oqtq12%%10ttuptqa1sqtputt01$%2tqwq<o33:::5666:**=",
"@686668er8885=o1ww20w1%O---10p2u$u2p01--$O%1wwt02%o85356866eee66636r8868865356o1ww20w1%O---10p2u$u2p01--$O%1wwt02%o33:355333:==:",
"=63688eee656:*o<qw1t02% 1t0<-O%1o1%O-<t2$ -t0tww<%o535566668ee86558r8888686568o<qw1t02% 1t0<-O%1o1%O-<t2$ -t0tww<%o3556863=:;=36",
"*36868ere65:==o-q0t1tt-%O%$-$  OOO  $-$%O-2tttttw%O335863668ee65688888688re558o-q0t1tt-%O%$-$  OOO  $-$%O-2tttttw%O55555:3====33",
"368568er663:36O<2tt-0101%<1$$21%O%12$$1<%2210qtq2<O::5663556886666888668rr8555O<2tt-0101%<1$$21%O%12$$1<%2210qtq2<O6866:35:==*=3",
"666668r8866386o$%20%%%$o%0tq%0t0%0t0%qt0%o$%1202%%3333665368868866r8866er88666o$%20%%%$o%0tq%0t0%0t0%qt0%o$%1202%%e87885663====3",
"666866r68rr6886o$%1$$O$o%qw0owg010gwo0wq%o$O$%1%$O63::3855883888888rr868r888585o$%1$$O$o%qw0owg010gwo0wq%o$O$%1%$Oee8886666:====",
"6686886888r6656eo$$$OOo%t1tt-taw1tht-tt1t%oOO$$$$6853:::55r8668658erre88r6655686o$$$OOo%t1tt-taw1tht-tt1t%oOO$$$$rreee686683=::3",
"38666er8866535688o$$o$%20tg10wgaqahs01gt02%$oO$o688655===:5556666666er88885=35563o$$o$%20tg10wgaqahs01gt02%$oO$o6eree88866633::3",
"65336r8ee65336e66rOO%120t0t%<hga0aght1htt021%$O688r653==*==:33353:35566665=&&:5555OO%120t0t%<hga0aght1htt021%$Oeeryrr8e8666333:3",
"33568rrr866368656rO%%<1-00g<ttqtOtq0a0g0%-1<%%$re8r855====****===:5655533:==:56r86O%%<1-00g<ttqtOtq0a0g0%-1<%%$656eerrr866386336",
"=356ryr88876688558O-21%1w%h0s$%0o0%$s0h%w1%12-oe88e6855=*===&&&==5686553=&==588e86O-21%1w%h0s$%0o0%$s0h%w1%12-o65r8e6err53686335",
"3668rr888r86668836O-1%owt1pww OOOOO twp1twO%1$oe6e68853&&&33===:38888863:333556ee8O-1%owt1pww OOOOO twp1twO%1$o65:568e8855666366",
"6888re88888668rr56O-1%Oo110t-       -t011oO%1-oe8886553=&&:55::335e8e86555555556e8O-1%Oo110t-       -t011oO%1-o5:::5688555766556",
"66888r88e8888rrr65O<<$%g%10t2       2t01%g%$<%o8e863355:&&*3565555686655688886666eO<<$%g%10t2       2t01%g%$<%o3=:=58853:5555536",
"6888888e888888yr65O<2$0go%tww-p 0 p-wwt%<g0$2<O663355885=*&:68re655663:38666886658O<2$0go%tww-p 0 p-wwt%<g0$2<O::::38::3:6355536",
"66666668683887r88o<1w-qaoo<<12wwqww21<<ooaq-w0%o66866r86:===3686e8r88653556355555o<1w-qaoo<<12wwqww21<<ooaq-w0%o5::=33:336533338",
"*3556358636888e8e$<0t%ttooo2<O-   -%<2ooott%t0<%8888388653333556836866533553;35:5$<0t%ttooo2<O-   -%<2ooott%t0<%53:=3::355633336",
"6=3353683355r68rO%<qt$wuo<O<%1wO Ow1%<O<ouw$t0<-O68e6885555555536668886536563335O%<qt$wuo<O<%1wO Ow1%<O<ouw$t0<-O53=:333333::=*=",
"***=5538635666rrO-<0tO0w-w-O<0w- -w0%O-w-w0Ot0<-O3686e65666666555668636453363556O-<0tO0w-w-O<0w- -w0%O-w-w0Ot0<-O53=3333:::=*&@*",
"@&*=:35666666erro-<0tO10%0--Ow01 10wO--0%q0Ot0<$o5666r66886866533566636353366666o-<0tO10%0--Ow01 10wO--0%q0Ot0<$o5::333333::*&&*",
"+@*===:36866638rr$-wtO%-$1$O%012$210%O$1$-%Ot0-$5656886888re6855356666636566853;4$-wtO%-$1$O%012$210%O$1$-%Ot0-$83==:333643:=&&@",
"+@@***=:555665886$-001OO2q11-qtq0qtq-11q2OO100-$566688668rr885655566686666ee35:*;$-001OO2q11-qtq0qtq-11q2OO100-$83==*3333633:=@@",
"*@@@@&==:33556666O$10-%-2w2<%1q2-2q1$<0tw-<-01$O5886r888er886686555666888e6553:**O$10-%-2w2<%1q2-2q1$<0tw-<-01$O63:=:366353:::*@",
"@*@@@@*==:36666866O%-$$<-2%%$%<$o$<%$o%01<<$-%O45865erre6666888866665556665:33:***O%-$$<-2%%$%<$o$<%$o%01<<$-%O8633:3666735533:=",
"=**@++**=:686666566OOo-%%$$o$o$ooo$o$o%$%%$o$O686666eeer6556666655333566365=363:***OOo-%%$$o$o$ooo$o$o%$%%$o$O66533:38r668r6653:",
"::==**===:58863666388eoOOO56%ooooooo%:=oOOo%86886668re86555655556355566656:*:363:*:356oOOO63%ooooooo%88oOOo%8ee6555338866rr66336",
":383==33*==3666668668r85:=35553:::=====::35865886568e88888ee655:5565566653***36653556688865337767436678rrr8e88rr5563388568886333",
"3365:*563===33665533666:=*=3:=3::::3::=:5355:3r86688666888rre65=:366666653:;:36r86e66668655436336356888888err8rr5336686887688633",
":3583:665*==36665335663&*&&=::3:355555556655568e688866556888r85==36686653333368ree865:566666:33;335668r8887rr8r83336888rr8668853",
"3663558863;=6665335585:&&&=:55558888r6668866568e688eee5568r66r6:==56666*;33368ee88e85:56668683;::3666888886rr8r833356er88er86433",
"66666388863:686535833:===::5468reeee8666e866565356888e6:58866e653=36656;*;36888868e85:568878r33:::553688888er88833357rr8eeer63:3",
"6868888866368865=553=*&::5888reeeere8668e868865&:5668853368666663335665:*:488e84668863568888r33:=::::3886888er8336656e8er8888553",
"366888888533565583:=*&=:5888eee88err88eee868ee5:&566665::68856888355655::5688886534665668rrre36::*===:6868868r6567556eeer8856853",
"3566688r865556685:=*&*=::3686688eee888eree8eer865555355355666r888855666:666666664;3355668rrye633=***=:3368868r85366368rrree66883",
"558868888888r88863=&=:::=:3666rreeee6erree8rer88e855555:5568rr8786558656e8666665553::5668rrrr633=****=333568rr65:6e68ererrr63643",
"88588888e8888r8865==353::=:56r6887666ere8errer46688886665588e88886653556656866663:::566888re8633***=*=33358err65=5868ereryy63663",
"rr8e8y8eee88e8886535665::3355688rreeerrre83&356*8rrr8r6736r8rr6r8653::35366e68r63**5668666688e66=**&&*:568eeeee5=368r88rrrrre868",
"r8rerr888ee683365558rr655555688rr8r88rrrr6=3r8e6r8er8rr766rrry8rr85:***:566363883*:5888565688e53:==&&=:58eeee865338688e86err8668",
"6eryryr668r8633336688e866688rr8868r65rr86338rrr588rrrrr668yr8rrrr85:=&33333833553&36ee8653555555533::=::5888e865:58668r86er88688",
"68r88666ery6:=338888rryeee8yyy88rerr88863666rrr385rrrr8656666rre85:3:3*334658355356yrr853355533536665:*==335r85558e6665555665586",
"66e88656eye5@=338rrrr8ryye5yyr68yrrryy865368r834rerrrrrrr656686655363;683636385336eyye65333853:538636:***=33666368865555668r8886",
"68666668ey83:3*3rrrrrrryyy888656yyrrrdr6333rr388errrrrrrr8533335:35*63688865665:68y888655*3885::35665:=&&=3566666565566666688er8",
"8686666rrr633636rrr88rryyyyy8:=588rryy3;63:88:66r8rrrrrrrr5*356e333==3883883663388ee886563388533=:56:====:38656355555586866658re",
"86368868yr63:3666yy8rrrryyryr6355668r8363*333636rrrrr88888:3556655;*45555868665558ee8e836335655333:====:::55333566886668866836re",
"6668688rre5:::3868r8rrrryyrrr86r886665555*6*3788rrr85333555r866665636533668855566eyyye663333855565:=&=3635653:688888668re6686688",
"6685688ee86:*3333588r8eryyyr888yrryr53655386668er8556358er8866r866663656656833588errre6565686::585===:3556r85355668666rr86556886",
"66666888865:333;:668r88rryrr88rr888r8663553556er83366358rrre66r65886686e8555::6ereery86556888:3565=38353688656655666656865555863",
"66686888865:5533:3688rrrrere8rr6668r5333333536e86368e8338rr868658888886865:3&:688eeerr86568e855563336555883658666665653555553555",
"66868888863:565:::588ryy8686888658883;8733355686368ree6:3668rr88rrr8r86r5:=&&3658r668re855err65653358556r8665658ee86533:35555363",
"386668888835:563563r68yr88r658re3*68636865335353688rr8855*38rrr88rr8r8565=*&=38856556e865:6883335:655568r8565668eee6535555688633",
"4435688err86:3656yy3558eere558er83*3863566553=:688eeeer6:*&6errrrrrr88886=&&:5er856555655::66653586853558885368ere6365566r888866",
"33368errrdr635636rfr*36err8336rr6334883366533668eee8e86:&&=58e88rr8rr8665=&:56err853=:6558658r886686863568533688665553556re68r86",
"6336eyr8eyr3568668rr6366886:36er3@*36866663356888rerr863=&=58e8r8r8r8r55:**36erree85::5558666e88e668685556555686566865368ee88e86",
"3688rr88eyre665r8668e65555:3368r*@3366665563586688eee885:*:56err8re3r6::=*:58reerrr6:5333e666e6er668886566556855688885568er88rr8",
"6888re88erre858y8668e863====:58e*=r636563365555688888r853=:56888666r65:=:::6r88r8r6335:3:8866688888888865835e85356665566886668e8",
"66888r88ere8688r568e68r3&&=*=:5r3:666666366655688r88886*:333666665;*:3=:::578rr8rr8rr85558e86558888888885:3555688888866688e88886",
"6886688eee866366:668eee3&&&&*=;r86666884668655666666666=::35666665**33:==:58rre3y8erye6556e865688888888863=::5888868866668886866",
"6666666688ee865886rre63=:=**===535686663633333665555553:===:566653::365*@@*68rerr885ee653386655rr88eeeeee3336688rrrr868r86535536",
"6656577888rr8668e56885==3:==:::333666666343*3336:3::::3**&@=55553:::36=*&@*38ryryr668e6533366556eeerrrrr85=58reerr86668rr7355555",
"6566566888887558856r5=*====::5353343688636333333====;:3*&&@*36*3:;:333***@+:5888666ery83:3388855eyryyrrr855rerre8865566rr6633335",
"5665366688888536856r5**=33==34463333568686663:6:====*:;*=***8&:@;;:36****&@;5688336eyr6:::38rr65eryyyyrr668yrrryy865568r85535535",
"566633666655533565683&*=3333=33643*668868844335:===*=:34**336*3&3:33633&+&=*5666466ey83:653rrr86eryyyyye668yyrrrde6356rr64368833",
"6886335566533:385535=&**=3353=665336e88686664345::3:3333**3363@6863;66=@@==@686666rrr653656rrre8eryyyye656rfyrryy865356853468337",
"8885:::37e888e883555==*=3666533653668868866835665553:**;*36333*6*@38e5@*:3:=6368868yr6::3666yy8rrrryyr65:6ryyrrre855535665566568",
"888553678er8888855y5::=6666785=666688888e88e86666665:=*@*3336833*@3886**:33*368688rry3:::3868r8rrrryy8:3:rr8ry886685555366536665",
"6678536688e8886556y6&*338r68e636888888888e88e86886665=&+@*3666335*36633***33685688r8y6::::33588r8erye5=:6ryrryr65565585656336663",
"6666666888eer85368e733338866e6358888888eeee8ee8788865:=&@*33433333663;383&3666668r8ey6:33:::668r88r853=:5rree8e65535686555533666",
"7767436678rrr6:888r636338856863:588888eeereeree888863==@*===3663336633663*3666866r6er6:383::3688rre5=:::566688863335685436665556",
"633635688888833368r3*6668688863=358888e8ereerreee8863:3***3*33653333**3=3=666868868:85:366::55e8re63::55865666665876686538e86336",
"33:335668r865:=:5883356888rr6533=3588eeeereee656886655333*3366563*333*=*=6838666er88e3::785363r6e853558eree65566668666554eer65:3",
"3:=:366686663:&:56833366er865885:=38ee88888653:3663333:33*3665533**344=*6r84433:r8errr5:3668yy3355568eeryrr6556865566655688865:3",
"3:::355363366533:5333867r856ere83:==33=355665::::3333::33365656883**333366633366rrrrdy5:5866rf8*=36eerrryre65:466536665368866653",
"33:=3=::3556865565536648e658rrre65=:==35556863:==:33363335566568e6*;3336663=336ryr8eyr356r668r6:&:6rrr8rrre55536866663535ee86883",
"36:=::=:3686865666567*38e58rrrryy6:66668888ee85:3356665536656668r833333*6833688rr88eyre568r8365:&=3eyrrryre655566665566r8rr86643",
"333:=:=:333688665:=34668e68rrrryy86reeeeee8eee85:3588665556668888633563*:536888re88erre656y8555:*=36e8rryre655666563366rryy86663",
"e333:::333335665&:=36e6866errrrrr86eeeee888688653=58886666888888666663**33366888r88ere866665553:=:3588eerre868r86768r8r888886ee8",
"8553333555566665:55e8e88588rrryre668rerr868686865358eeee86eeeee6r866*68@38668888e8eee866555:563;=::5668eeeeee886666668rr868888ee",
"886655556666686535866r8668eerryre5388rr8886368868556eere8eerrre8rr8&8;6333663638eeerrre656566r3::=::3576eeeee86666666865686788er",
"343;;=*=;3;;3333=*;==333;34455543;;3=;73;;;;;;;;3;=;4553;;344445553&&@======3==;34577753;;3;3;=**&&&=;3;444444;;;;::3;;;;3;33443",
"qqqq0qqqqqqqqqqqqqqqqwqqqqwttwqq0qwqqqqqqqq0qqqqqwwwwwwqqqq9qqqwqqqq0qqqqqqqqqqqqqqqqwqqqqwttwqq0qwqqqqqqqq0qqqqqwwwwwwqqqq9qqqw",
"w051222002<222w02120000qwwtwtwq022002212222=<1220qwwwww0<222w200w051222002<222w02120000qwwtwtwq022002212222=<1220qwwwww0<222w200",
"w02102<202<112w0222200qqwwwwwqq10002<222202<<120qqwqwwqq12w000qww02102<202<112w0222200qqwwwwwqq10002<222202<<120qqwqwwqq12w000qw",
"111<1---11<-11111111222222022112111-,41111111<122220000011202100111<1---11<-11111111222222022112111-,41111111<122220000011202100"
};
