/* XPM */
static char * IMG_8_xpm[] = {
"128 128 37 1",
" 	c #232B0F",
".	c #2F371F",
"+	c #F900FF",
"@	c #53573B",
"#	c #3F472B",
"$	c #0F1700",
"%	c #5B6347",
"&	c #474F33",
"*	c #373F27",
"=	c #171F07",
"-	c #6F7357",
";	c #676B4F",
">	c #6F5743",
",	c #4B4B4B",
"'	c #1B1B1B",
")	c #232323",
"!	c #272727",
"~	c #0B0B0B",
"{	c #070707",
"]	c #373737",
"^	c #434343",
"/	c #2F2F2F",
"(	c #131313",
"_	c #5B5B5B",
":	c #4F4F4F",
"<	c #3B3B3B",
"[	c #636363",
"}	c #A78F77",
"|	c #9F876F",
"1	c #7B7F63",
"2	c #AF977F",
"3	c #533F1F",
"4	c #2B230F",
"5	c #6F6F6F",
"6	c #777777",
"7	c #474747",
"8	c #575757",
"       .    ++++++++++++++++++++++++++++++++++++++++++++++++++++++++++++++++++++++++++++++++++++++++++++++++++++++++  .       . ",
"@#.$.#@%@#.$++++++++++++++++++++++++++++++++++++++++++++++++++++++++++++++++++++++++++++++++++++++++++++++++++++++++#@%@#.$.#@%@",
"@@#.#@@%@@#.++++++++++++++++++++++++++++++++++++++++++++++++++++++++++++++++++++++++++++++++++++++++++++++++++++++++@@%@@#.#@@%@",
"&%&#&%&&&%&#++++++++++++++++++++++++++++++++++++++++++++++++++++++++++++++++++++++++++++++++++++++++++++++++++++++++%&&&%&#&%&&&",
"@%#.#%@#@%#.++++++++++++++++++++++++++++++++++++++++++++++++++++++++++++++++++++++++++++++++++++++++++++++++++++++++%@#@%#.#%@#@",
". @.& .%. @.++++++++++++++++++++++++++++++++++++++++++++++++++++++++++++++++++++++++++++++++++++++++++++++++++++++++ .%. @.& .%.",
"%@%#%@%.%@%#++++++++++++++++++++++++++++++++++++++++++++++++++++++++++++++++++++++++++++++++++++++++++++++++++++++++@%.%@%#%@%.%",
"& . . &@& . ++++++++++++++++++++++++++++++++++++++++++++++++++++++++++++++++++++++++++++++++++++++++++++++++++++++++ &@& . . &@&",
"* $$= *** $$++++++++++++++++++++++++++++++++++++++++++++++++++++++++++++++++++++++++++++++++++++++++++++++++++++++++ *** $$= ***",
"---;;;;>;;;-++++++++++++++++++++++++++++++++++++++++++++++++++++++++++++++++++++++++++++++++++++++++++++++++++++++++;;;%;;;;;;;;",
"---%#@@@-@%%++++++++++++++++++++++++++++++++++++++++++++++++++++++++++++++++++++++++++++++++++++++++++++++++++++++++%,&@@@%%@#@@",
"--;;&@-%%%;-++++++++++++++++++++++++++++++++++++++++++++++++++++++++++++++++++++++++++++++++++++++++++++++++++++++++%@&%@#@%@#&&",
"%%%%&&@%@&%%++++++++++++++++++++++++++++++++++++++++++++++++++++++++++++++++++++++++++++++++++++++++++++++++++++++++&&#&***&&#*&",
"')''''!!)'''++++++++++++++++++++++++++++++++++++++++++++++++++++++++++++++++++++++++++++++++++++++++++++++++++++++++~{~'''~'''''",
"]^]/]]]//]//++++++++++++++++++++++++++++++++++++++++++++++++++++++++++++++++++++++++++++++++++++++++++++++++++++++++'''))('/^^/)",
"^_:^_^<<<^^^++++++++++++++++++++++++++++++++++++++++++++++++++++++++++++++++++++++++++++++++++++++++++++++++++++++++//!/)!/<,^<!",
":_^::,</<^^^++++++++++++++++++++++++++++++++++++++++++++++++++++++++++++++++++++++++++++++++++++++++++++++++++++++++<<<<<<<<^^//",
"[::^:^!)/<^^++++++++++++++++++++++++++++++++++++++++++++++++++++++++++++++++++++++++++++++++++++++++++++++++++++++++^^^^,,,^^<//",
"::,:,<<!!<:_++++++++++++++++++++++++++++++++++++++++++++++++++++++++++++++++++++++++++++++++++++++++++++++++++++++++,,^,,:::^</,",
",,:_::^/!!^^++++++++++++++++++++++++++++++++++++++++++++++++++++++++++++++++++++++++++++++++++++++++++++++++++++++++_,^,::[_:,,:",
"   =$ :,/!<^++++++++++++++++++++++++++++++++++++++++++++++++++++++++++++++++++++++++++++++++++++++++++++++++++++++++_,,,:: $=. *",
"&@&#*  =/<<<++++++++++++++++++++++++++++++++++++++++++++++++++++++++++++++++++++++++++++++++++++++++++++++++++++++++^,^,= .*.*#*",
"@%@*&**.=^^,++++++++++++++++++++++++++++++++++++++++++++++++++++++++++++++++++++++++++++++++++++++++++++++++++++++++^,,=.**&@&&;",
"}|-;%@@&.=^:++++++++++++++++++++++++++++++++++++++++++++++++++++++++++++++++++++++++++++++++++++++++++++++++++++++++::=.&@@%;-1}",
"222|1;%@*.:_++++++++++++++++++++++++++++++++++++++++++++++++++++++++++++++++++++++++++++++++++++++++++++++++++++++++:: #@;;11}22",
"111|}1-%@*=:++++++++++++++++++++++++++++++++++++++++++++++++++++++++++++++++++++++++++++++++++++++++++++++++++++++++_= &&%1}1;-1",
"1;-11}1;;34:++++++++++++++++++++++++++++++++++++++++++++++++++++++++++++++++++++++++++++++++++++++++++++++++++++++++_ #@;-111;;1",
"-;--111;%&._++++++++++++++++++++++++++++++++++++++++++++++++++++++++++++++++++++++++++++++++++++++++++++++++++++++++:.@;-111--;-",
"%-;---11-@&5++++++++++++++++++++++++++++++++++++++++++++++++++++++++++++++++++++++++++++++++++++++++++++++++++++++++,.@@-1---;-%",
"&%@%%-11-%&[++++++++++++++++++++++++++++++++++++++++++++++++++++++++++++++++++++++++++++++++++++++++++++++++++++++++:.&%11-%%@%&",
".##%%;--%&._++++++++++++++++++++++++++++++++++++++++++++++++++++++++++++++++++++++++++++++++++++++++++++++++++++++++:.&%1-;%%##.",
"==*&#&-1-%.:++++++++++++++++++++++++++++++++++++++++++++++++++++++++++++++++++++++++++++++++++++++++++++++++++++++++:*@;1-&&&*==",
"=$==.%---@*:++++++++++++++++++++++++++++++++++++++++++++++++++++++++++++++++++++++++++++++++++++++++++++++++++++++++:.@;1;%#==$$",
"==5= @;%%#.^++++++++++++++++++++++++++++++++++++++++++++++++++++++++++++++++++++++++++++++++++++++++++++++++++++++++, #&-%@.=[$$",
"=$56=*@1%.=:++++++++++++++++++++++++++++++++++++++++++++++++++++++++++++++++++++++++++++++++++++++++++++++++++++++++[[.%-@*=[:$$",
"=5556$*;&  [++++++++++++++++++++++++++++++++++++++++++++++++++++++++++++++++++++++++++++++++++++++++++++++++++++++++55 &.*$6_::$",
":_556=.&$=[:++++++++++++++++++++++++++++++++++++++++++++++++++++++++++++++++++++++++++++++++++++++++++++++++++++++++[5=.&.=_:,<^",
"_:_56=$ $___++++++++++++++++++++++++++++++++++++++++++++++++++++++++++++++++++++++++++++++++++++++++++++++++++++++++_[5=. =:,</<",
"::_55=$$=[[_++++++++++++++++++++++++++++++++++++++++++++++++++++++++++++++++++++++++++++++++++++++++++++++++++++++++:__====_,^<<",
"^:_[5=$$[[[_++++++++++++++++++++++++++++++++++++++++++++++++++++++++++++++++++++++++++++++++++++++++++++++++++++++++:[[[$$=_::::",
",::_:$$$__5_++++++++++++++++++++++++++++++++++++++++++++++++++++++++++++++++++++++++++++++++++++++++++++++++++++++++::5_[$=[_:[5",
"<,::_$$[__6_++++++++++++++++++++++++++++++++++++++++++++++++++++++++++++++++++++++++++++++++++++++++++++++++++++++++^^__[5$5_:[5",
"^^:::_[[_,55++++++++++++++++++++++++++++++++++++++++++++++++++++++++++++++++++++++++++++++++++++++++++++++++++++++++^,_[[55__::_",
":^:::_[[^::_++++++++++++++++++++++++++++++++++++++++++++++++++++++++++++++++++++++++++++++++++++++++++++++++++++++++::___[[_::,,",
":^,:_:_[[:::++++++++++++++++++++++++++++++++++++++++++++++++++++++++++++++++++++++++++++++++++++++++++++++++++++++++::[_:__:::,^",
",^,:_::[[[::++++++++++++++++++++++++++++++++++++++++++++++++++++++++++++++++++++++++++++++++++++++++++++++++++++++++^:5__:__:,^,",
"^,,::::_[[_:++++++++++++++++++++++++++++++++++++++++++++++++++++++++++++++++++++++++++++++++++++++++++++++++++++++++,_5____:_:,:",
"^,_:^::_[[:,++++++++++++++++++++++++++++++++++++++++++++++++++++++++++++++++++++++++++++++++++++++++++++++++++++++++_____:__5[,,",
"<,::^,,:__::++++++++++++++++++++++++++++++++++++++++++++++++++++++++++++++++++++++++++++++++++++++++++++++++++++++++:___::_55_,,",
"^^::,^:__:__++++++++++++++++++++++++++++++++++++++++++++++++++++++++++++++++++++++++++++++++++++++++++++++++++++++++:5__::[5__::",
"<<^_,,__^___++++++++++++++++++++++++++++++++++++++++++++++++++++++++++++++++++++++++++++++++++++++++++++++++++++++++__55_:_5___,",
"^<<<,,5_::_:++++++++++++++++++++++++++++++++++++++++++++++++++++++++++++++++++++++++++++++++++++++++++++++++++++++++_[55[__5::,,",
",,///<,,,:::++++++++++++++++++++++++++++++++++++++++++++++++++++++++++++++++++++++++++++++++++++++++++++++++++++++++:::[5____,/^",
",^//!//<^^^,++++++++++++++++++++++++++++++++++++++++++++++++++++++++++++++++++++++++++++++++++++++++++++++++++++++++<^,,::::,/))",
",,////!!!!//++++++++++++++++++++++++++++++++++++++++++++++++++++++++++++++++++++++++++++++++++++++++++++++++++++++++<,:,,,^^<//<",
"_,,/!///)))/++++++++++++++++++++++++++++++++++++++++++++++++++++++++++++++++++++++++++++++++++++++++++++++++++++++++,:_:,,^/)//,",
"_,^)))^^///<++++++++++++++++++++++++++++++++++++++++++++++++++++++++++++++++++++++++++++++++++++++++++++++++++++++++_____:^<^^^,",
",,^/))<,,<<^++++++++++++++++++++++++++++++++++++++++++++++++++++++++++++++++++++++++++++++++++++++++++++++++++++++++,[_[_:,,,,,,",
"^,,<))!^,:,,++++++++++++++++++++++++++++++++++++++++++++++++++++++++++++++++++++++++++++++++++++++++++++++++++++++++,:_::,,:____",
",__,/!)<:_5[++++++++++++++++++++++++++++++++++++++++++++++++++++++++++++++++++++++++++++++++++++++++++++++++++++++++,,::^<^_:::_",
":5_:<///^:_:++++++++++++++++++++++++++++++++++++++++++++++++++++++++++++++++++++++++++++++++++++++++++++++++++++++++_5__:,^,,:^,",
"^__:,^^^^,,:++++++++++++++++++++++++++++++++++++++++++++++++++++++++++++++++++++++++++++++++++++++++++++++++++++++++^:_::,^^,,^]",
":__,,,,,,,,^++++++++++++++++++++++++++++++++++++++++++++++++++++++++++++++++++++++++++++++++++++++++++++++++++++++++::___:,^:,:^",
":[:,::::::,,++++++++++++++++++++++++++++++++++++++++++++++++++++++++++++++++++++++++++++++++++++++++++++++++++++++++::_:^:7,^^:^",
":5::__:_::,^++++++++++++++++++++++++++++++++++++++++++++++++++++++++++++++++++++++++++++++++++++++++++++++++++++++++,:::^:^,^^::",
"__:___5[:_,,++++++++++++++++++++++++++++++++++++++++++++++++++++++++++++++++++++++++++++++++++++++++++++++++++++++++,:::::^:,::_",
"__::_55__,:,++++++++++++++++++++++++++++++++++++++++++++++++++++++++++++++++++++++++++++++++++++++++++++++++++++++++,:::_::::[[^",
"5___[5__::_:++++++++++++++++++++++++++++++++++++++++++++++++++++++++++++++++++++++++++++++++++++++++++++++++++++++++,,:::___[:,,",
"[55[::::____++++++++++++++++++++++++++++++++++++++++++++++++++++++++++++++++++++++++++++++++++++++++++++++++++++++++:::,,,:::,<^",
"[[[5:,,:::::++++++++++++++++++++++++++++++++++++++++++++++++++++++++++++++++++++++++++++++++++++++++++++++++++++++++,^^^,::^:,/^",
"5[_:,,,:,,,,++++++++++++++++++++++++++++++++++++++++++++++++++++++++++++++++++++++++++++++++++++++++++++++++++++++++^,,,:::,:<!<",
"[_____[[:,,<++++++++++++++++++++++++++++++++++++++++++++++++++++++++++++++++++++++++++++++++++++++++++++++++++++++++,:,,:::,^!!!",
":::___55[:,/++++++++++++++++++++++++++++++++++++++++++++++++++++++++++++++++++++++++++++++++++++++++++++++++++++++++^::::::,^<]<",
"::,,:___5_,/++++++++++++++++++++++++++++++++++++++++++++++++++++++++++++++++++++++++++++++++++++++++++++++++++++++++^::_::,^^^^^",
"[[,,:_5::5:<++++++++++++++++++++++++++++++++++++++++++++++++++++++++++++++++++++++++++++++++++++++++++++++++++++++++/,::::!]^^^:",
"_[:<,__::[:,++++++++++++++++++++++++++++++++++++++++++++++++++++++++++++++++++++++++++++++++++++++++++++++++++++++++/^::,:]!]^:_",
"__,^^:_:::::++++++++++++++++++++++++++++++++++++++++++++++++++++++++++++++++++++++++++++++++++++++++++++++++++++++++^^,::,<!<7__",
"::,<<:__,:__++++++++++++++++++++++++++++++++++++++++++++++++++++++++++++++++++++++++++++++++++++++++++++++++++++++++^,,:,,<<,:__",
"^,,^,,:::5__++++++++++++++++++++++++++++++++++++++++++++++++++++++++++++++++++++++++++++++++++++++++++++++++++++++++_,,:::<:::::",
",,,<,,:_55_8++++++++++++++++++++++++++++++++++++++++++++++++++++++++++++++++++++++++++++++++++++++++++++++++++++++++:,,_:,:[_:::",
"_:::,,__[___++++++++++++++++++++++++++++++++++++++++++++++++++++++++++++++++++++++++++++++++++++++++++++++++++++++++::,^,,::,:_:",
"_5:8^:5_55:5++++++++++++++++++++++++++++++++++++++++++++++++++++++++++++++++++++++++++++++++++++++++++++++++++++++++:,^<<^,^::[:",
"_558::5556_5++++++++++++++++++++++++++++++++++++++++++++++++++++++++++++++++++++++++++++++++++++++++++++++++++++++++_,<!!!<,::^:",
"555::_65_555++++++++++++++++++++++++++++++++++++++++++++++++++++++++++++++++++++++++++++++++++++++++++++++++++++++++_,</)^^^^^_^",
"55_:,::::55[++++++++++++++++++++++++++++++++++++++++++++++++++++++++++++++++++++++++++++++++++++++++++++++++++++++++,<^<^!^^7:,_",
"55555:,::_::++++++++++++++++++++++++++++++++++++++++++++++++++++++++++++++++++++++++++++++++++++++++++++++++++++++++,^:^]:_^:^:^",
"55555_,^^^^,++++++++++++++++++++++++++++++++++++++++++++++++++++++++++++++++++++++++++++++++++++++++++++++++++++++++^,!:^:___:,:",
"555555,!^,:[++++++++++++++++++++++++++++++++++++++++++++++++++++++++++++++++++++++++++++++++++++++++++++++++++++++++^^//^__^__^:",
"5_____<^,,::++++++++++++++++++++++++++++++++++++++++++++++++++++++++++++++++++++++++++++++++++++++++++++++++++++++++,]!7,,,,_:_:",
",^^^,,,5_:::++++++++++++++++++++++++++++++++++++++++++++++++++++++++++++++++++++++++++++++++++++++++++++++++++++++++,:^:,^^::__,",
":^,_[5__::5_++++++++++++++++++++++++++++++++++++++++++++++++++++++++++++++++++++++++++++++++++++++++++++++++++++++++:::^:,::,:_^",
":^,_555[::5:++++++++++++++++++++++++++++++++++++++++++++++++++++++++++++++++++++++++++++++++++++++++++++++++++++++++__::_:[_,,,<",
"[_^^_55_:_:,++++++++++++++++++++++++++++++++++++++++++++++++++++++++++++++++++++++++++++++++++++++++++++++++++++++++_____:_:,<^)",
"[[:<^::_55__++++++++++++++++++++++++++++++++++++++++++++++++++++++++++++++++++++++++++++++++++++++++++++++++++++++++55_5_:5,</))",
"5__,,!^_555_++++++++++++++++++++++++++++++++++++++++++++++++++++++++++++++++++++++++++++++++++++++++++++++++++++++++55_5_,:,/!)/",
"[[5:<!):[555++++++++++++++++++++++++++++++++++++++++++++++++++++++++++++++++++++++++++++++++++++++++++++++++++++++++555____:/))<",
"[_:<))/,_[__++++++++++++++++++++++++++++++++++++++++++++++++++++++++++++++++++++++++++++++++++++++++++++++++++++++++5_55_::,/)<,",
"5_:^/)/,_[_5++++++++++++++++++++++++++++++++++++++++++++++++++++++++++++++++++++++++++++++++++++++++++++++++++++++++5_5_5,,<!!^:",
"[__,<!<,:[55++++++++++++++++++++++++++++++++++++++++++++++++++++++++++++++++++++++++++++++++++++++++++++++++++++++++5[^5:<</!<,_",
"_5_,^/<,:___++++++++++++++++++++++++++++++++++++++++++++++++++++++++++++++++++++++++++++++++++++++++++++++++++++++++::5:,</<<<:5",
"__:!<^^^::::++++++++++++++++++++++++++++++++++++++++++++++++++++++++++++++++++++++++++++++++++++++++++++++++++++++++,]!<^/<<<,8_",
":::/<<^,::::++++++++++++++++++++++++++++++++++++++++++++++++++++++++++++++++++++++++++++++++++++++++++++++++++++++++,!!^^<//<,_5",
",,^<///<,:::++++++++++++++++++++++++++++++++++++++++++++++++++++++++++++++++++++++++++++++++++++++++++++++++++++++++^<<^:,!''!:_",
"<<^!!)'/,,,,++++++++++++++++++++++++++++++++++++++++++++++++++++++++++++++++++++++++++++++++++++++++++++++++++++++++<<<^:/!)'!^_",
"]<^!))'!^:!^++++++++++++++++++++++++++++++++++++++++++++++++++++++++++++++++++++++++++++++++++++++++++++++++++++++++]<^^^!!!'(<,",
"!<]!/!!!_)<'++++++++++++++++++++++++++++++++++++++++++++++++++++++++++++++++++++++++++++++++++++++++++++++++++++++++]<^:!!!!)'],",
"/<^7!!^^:!^)++++++++++++++++++++++++++++++++++++++++++++++++++++++++++++++++++++++++++++++++++++++++++++++++++++++++<^^:^^)()/!,",
"^^^^!!^^:^':++++++++++++++++++++++++++++++++++++++++++++++++++++++++++++++++++++++++++++++++++++++++++++++++++++++++:^]::/''//':",
"<!!]!^:^^^!:++++++++++++++++++++++++++++++++++++++++++++++++++++++++++++++++++++++++++++++++++++++++++++++++++++++++'^_[,'!<^</:",
"</!'!^^^:_^^++++++++++++++++++++++++++++++++++++++++++++++++++++++++++++++++++++++++++++++++++++++++++++++++++++++++'^__:!!<^^!^",
",/)('!^:::^^++++++++++++++++++++++++++++++++++++++++++++++++++++++++++++++++++++++++++++++++++++++++++++++++++++++++!^::^^!!!^^:",
",</)'!^^7^^^++++++++++++++++++++++++++++++++++++++++++++++++++++++++++++++++++++++++++++++++++++++++++++++++++++++++^::^]^_^)^::",
"^//'!///^::^++++++++++++++++++++++++++++++++++++++++++++++++++++++++++++++++++++++++++++++++++++++++++++++++++++++++^::^^::^!^::",
"^<^!!!^!^^:,++++++++++++++++++++++++++++++++++++++++++++++++++++++++++++++++++++++++++++++++++++++++++++++++++++++++^^^!!^/^/:::",
",,^^^!^^::,:++++++++++++++++++++++++++++++++++++++++++++++++++++++++++++++++++++++++++++++++++++++++++++++++++++++++!^^^!/!/:_^_",
"^^<^^!^::,,^++++++++++++++++++++++++++++++++++++++++++++++++++++++++++++++++++++++++++++++++++++++++++++++++++++++++!!^77/!:5_77",
"^<<^^^:,:,:_++++++++++++++++++++++++++++++++++++++++++++++++++++++++++++++++++++++++++++++++++++++++++++++++++++++++^!!^^^^:::^^",
"^:^^^,,::,:_++++++++++++++++++++++++++++++++++++++++++++++++++++++++++++++++++++++++++++++++++++++++++++++++++++++++:!]^^^:::^/^",
"::,,^::,:::_++++++++++++++++++++++++++++++++++++++++++++++++++++++++++++++++++++++++++++++++++++++++++++++++++++++++_^^^^^!:_^^:",
"_::,,,:::___++++++++++++++++++++++++++++++++++++++++++++++++++++++++++++++++++++++++++++++++++++++++++++++++++++++++:^^,:^!<,^:_",
"__::::______++++++++++++++++++++++++++++++++++++++++++++++++++++++++++++++++++++++++++++++++++++++++++++++++++++++++::::^!!^^^::",
"[[[[_:[[[[[:++++++++++++++++++++++++++++++++++++++++++++++++++++++++++++++++++++++++++++++++++++++++++++++++++++++++_::!:_'^_::_",
"[[5[_[[555[_++++++++++++++++++++++++++++++++++++++++++++++++++++++++++++++++++++++++++++++++++++++++++++++++++++++++5_)_]:^^^::^",
"7,,^]]^7777,++++++++++++++++++++++++++++++++++++++++++++++++++++++++++++++++++++++++++++++++++++++++++++++++++++++++,^))'//////^",
"---;;;;>;;;-++++++++++++++++++++++++++++++++++++++++++++++++++++++++++++++++++++++++++++++++++++++++++++++++++++++++;;;%;;;;;;;;",
"---%#@@@-@%%++++++++++++++++++++++++++++++++++++++++++++++++++++++++++++++++++++++++++++++++++++++++++++++++++++++++%,&@@@%%@#@@",
"--;;&@-%%%;-++++++++++++++++++++++++++++++++++++++++++++++++++++++++++++++++++++++++++++++++++++++++++++++++++++++++%@&%@#@%@#&&",
"%%%%&&@%@&%%++++++++++++++++++++++++++++++++++++++++++++++++++++++++++++++++++++++++++++++++++++++++++++++++++++++++&&#&***&&#*&"};
