/* XPM */
static char * IMG_2_xpm[] = {
"64 64 256 2",
"  	c #000000",
". 	c #0000FF",
"+ 	c #00FF00",
"@ 	c #FF0000",
"# 	c #00FFFF",
"$ 	c #FFFF00",
"% 	c #FF00FF",
"& 	c #FFFFFF",
"* 	c #7B7B7B",
"= 	c #7B7B7B",
"- 	c #7B7B7B",
"; 	c #7B7B7B",
"> 	c #7B7B7B",
", 	c #7B7B7B",
"' 	c #7B7B7B",
") 	c #7B7B7B",
"! 	c #7B7B7B",
"~ 	c #7B7B7B",
"{ 	c #7B7B7B",
"] 	c #7B7B7B",
"^ 	c #7B7B7B",
"/ 	c #7B7B7B",
"( 	c #7B7B7B",
"_ 	c #7B7B7B",
": 	c #7B7B7B",
"< 	c #7B7B7B",
"[ 	c #7B7B7B",
"} 	c #7B7B7B",
"| 	c #7B7B7B",
"1 	c #7B7B7B",
"2 	c #7B7B7B",
"3 	c #7B7B7B",
"4 	c #7B7B7B",
"5 	c #7B7B7B",
"6 	c #7B7B7B",
"7 	c #7B7B7B",
"8 	c #7B7B7B",
"9 	c #7B7B7B",
"0 	c #7B7B7B",
"a 	c #7B7B7B",
"b 	c #7B7B7B",
"c 	c #7B7B7B",
"d 	c #7B7B7B",
"e 	c #7B7B7B",
"f 	c #7B7B7B",
"g 	c #7B7B7B",
"h 	c #7B7B7B",
"i 	c #7B7B7B",
"j 	c #7B7B7B",
"k 	c #7B7B7B",
"l 	c #7B7B7B",
"m 	c #7B7B7B",
"n 	c #7B7B7B",
"o 	c #7B7B7B",
"p 	c #7B7B7B",
"q 	c #7B7B7B",
"r 	c #7B7B7B",
"s 	c #7B7B7B",
"t 	c #7B7B7B",
"u 	c #7B7B7B",
"v 	c #7B7B7B",
"w 	c #7B7B7B",
"x 	c #7B7B7B",
"y 	c #7B7B7B",
"z 	c #7B7B7B",
"A 	c #7B7B7B",
"B 	c #7B7B7B",
"C 	c #7B7B7B",
"D 	c #7B7B7B",
"E 	c #7B7B7B",
"F 	c #7B7B7B",
"G 	c #7B7B7B",
"H 	c #7B7B7B",
"I 	c #7B7B7B",
"J 	c #7B7B7B",
"K 	c #7B7B7B",
"L 	c #7B7B7B",
"M 	c #7B7B7B",
"N 	c #7B7B7B",
"O 	c #7B7B7B",
"P 	c #7B7B7B",
"Q 	c #7B7B7B",
"R 	c #7B7B7B",
"S 	c #7B7B7B",
"T 	c #7B7B7B",
"U 	c #7B7B7B",
"V 	c #7B7B7B",
"W 	c #7B7B7B",
"X 	c #7B7B7B",
"Y 	c #7B7B7B",
"Z 	c #7B7B7B",
"` 	c #7B7B7B",
" .	c #7B7B7B",
"..	c #7B7B7B",
"+.	c #7B7B7B",
"@.	c #7B7B7B",
"#.	c #7B7B7B",
"$.	c #7B7B7B",
"%.	c #7B7B7B",
"&.	c #7B7B7B",
"*.	c #7B7B7B",
"=.	c #7B7B7B",
"-.	c #7B7B7B",
";.	c #7B7B7B",
">.	c #7B7B7B",
",.	c #7B7B7B",
"'.	c #7B7B7B",
").	c #7B7B7B",
"!.	c #7B7B7B",
"~.	c #7B7B7B",
"{.	c #7B7B7B",
"].	c #7B7B7B",
"^.	c #7B7B7B",
"/.	c #7B7B7B",
"(.	c #7B7B7B",
"_.	c #7B7B7B",
":.	c #7B7B7B",
"<.	c #7B7B7B",
"[.	c #7B7B7B",
"}.	c #7B7B7B",
"|.	c #7B7B7B",
"1.	c #7B7B7B",
"2.	c #7B7B7B",
"3.	c #7B7B7B",
"4.	c #7B7B7B",
"5.	c #7B7B7B",
"6.	c #7B7B7B",
"7.	c #7B7B7B",
"8.	c #7B7B7B",
"9.	c #7B7B7B",
"0.	c #7B7B7B",
"a.	c #7B7B7B",
"b.	c #7B7B7B",
"c.	c #7B7B7B",
"d.	c #7B7B7B",
"e.	c #7B7B7B",
"f.	c #7B7B7B",
"g.	c #7B7B7B",
"h.	c #7B7B7B",
"i.	c #7B7B7B",
"j.	c #7B7B7B",
"k.	c #7B7B7B",
"l.	c #7B7B7B",
"m.	c #7B7B7B",
"n.	c #7B7B7B",
"o.	c #7B7B7B",
"p.	c #7B7B7B",
"q.	c #7B7B7B",
"r.	c #7B7B7B",
"s.	c #7B7B7B",
"t.	c #7B7B7B",
"u.	c #7B7B7B",
"v.	c #7B7B7B",
"w.	c #7B7B7B",
"x.	c #7B7B7B",
"y.	c #7B7B7B",
"z.	c #7B7B7B",
"A.	c #7B7B7B",
"B.	c #7B7B7B",
"C.	c #7B7B7B",
"D.	c #7B7B7B",
"E.	c #7B7B7B",
"F.	c #7B7B7B",
"G.	c #7B7B7B",
"H.	c #7B7B7B",
"I.	c #7B7B7B",
"J.	c #7B7B7B",
"K.	c #7B7B7B",
"L.	c #7B7B7B",
"M.	c #7B7B7B",
"N.	c #7B7B7B",
"O.	c #7B7B7B",
"P.	c #7B7B7B",
"Q.	c #7B7B7B",
"R.	c #7B7B7B",
"S.	c #7B7B7B",
"T.	c #7B7B7B",
"U.	c #7B7B7B",
"V.	c #7B7B7B",
"W.	c #7B7B7B",
"X.	c #7B7B7B",
"Y.	c #7B7B7B",
"Z.	c #7B7B7B",
"`.	c #7B7B7B",
" +	c #7B7B7B",
".+	c #7B7B7B",
"++	c #7B7B7B",
"@+	c #7B7B7B",
"#+	c #7B7B7B",
"$+	c #7B7B7B",
"%+	c #7B7B7B",
"&+	c #7B7B7B",
"*+	c #7B7B7B",
"=+	c #7B7B7B",
"-+	c #7B7B7B",
";+	c #7B7B7B",
">+	c #7B7B7B",
",+	c #7B7B7B",
"'+	c #7B7B7B",
")+	c #7B7B7B",
"!+	c #7B7B7B",
"~+	c #7B7B7B",
"{+	c #7B7B7B",
"]+	c #7B7B7B",
"^+	c #7B7B7B",
"/+	c #7B7B7B",
"(+	c #7B7B7B",
"_+	c #7B7B7B",
":+	c #7B7B7B",
"<+	c #7B7B7B",
"[+	c #7B7B7B",
"}+	c #7B7B7B",
"|+	c #7B7B7B",
"1+	c #7B7B7B",
"2+	c #7B7B7B",
"3+	c #7B7B7B",
"4+	c #7B7B7B",
"5+	c #7B7B7B",
"6+	c #7B7B7B",
"7+	c #7B7B7B",
"8+	c #7B7B7B",
"9+	c #7B7B7B",
"0+	c #7B7B7B",
"a+	c #7B7B7B",
"b+	c #7B7B7B",
"c+	c #7B7B7B",
"d+	c #7B7B7B",
"e+	c #7B7B7B",
"f+	c #7B7B7B",
"g+	c #7B7B7B",
"h+	c #7B7B7B",
"i+	c #7B7B7B",
"j+	c #7B7B7B",
"k+	c #7B7B7B",
"l+	c #7B7B7B",
"m+	c #7B7B7B",
"n+	c #7B7B7B",
"o+	c #7B7B7B",
"p+	c #7B7B7B",
"q+	c #7B7B7B",
"r+	c #7B7B7B",
"s+	c #7B7B7B",
"t+	c #7B7B7B",
"u+	c #7B7B7B",
"v+	c #7B7B7B",
"w+	c #7B7B7B",
"x+	c #7B7B7B",
"y+	c #7B7B7B",
"z+	c #7B7B7B",
"A+	c #7B7B7B",
"B+	c #7B7B7B",
"C+	c #6A4120",
"D+	c #4A3118",
"E+	c #5A4120",
"F+	c #835231",
"G+	c #734A29",
"D+E+E+E+E+E+E+E+E+E+E+E+E+E+E+D+E+G+G+F+F+F+F+F+F+G+G+G+G+F+G+E+E+G+G+F+G+F+F+F+G+F+F+F+F+F+G+E+E+G+G+G+G+F+F+F+F+G+G+F+F+G+G+E+",
"E+G+G+G+G+G+G+G+G+G+G+G+G+G+G+E+E+G+F+G+F+F+F+F+F+F+F+F+F+G+G+E+E+G+G+G+F+F+F+F+F+G+F+F+F+G+G+E+E+G+G+F+F+F+F+F+F+F+F+F+G+G+G+E+",
"E+G+G+G+F+F+G+G+F+G+G+F+F+G+G+E+E+G+G+G+F+F+F+F+G+G+G+F+F+F+G+E+E+G+F+F+F+F+G+F+F+F+F+G+G+G+G+E+E+G+F+G+F+F+F+F+G+F+F+G+G+G+G+E+",
"E+G+G+F+F+F+G+F+F+F+F+G+F+G+G+E+E+G+G+F+F+F+F+F+G+F+F+F+F+F+G+E+E+G+F+G+F+F+F+G+F+F+F+F+F+G+G+E+E+G+G+G+G+G+F+F+F+F+F+F+F+G+G+E+",
"E+G+F+F+F+F+F+F+G+F+F+F+G+F+G+E+E+G+F+F+G+G+F+F+F+F+F+G+F+G+G+E+E+G+G+G+F+F+F+G+F+F+F+F+G+F+G+E+E+G+F+G+G+G+F+G+G+F+F+G+G+G+G+E+",
"E+G+G+F+F+F+G+G+G+F+G+F+F+F+G+E+E+G+G+F+F+F+F+F+F+F+G+F+F+F+G+E+E+G+G+G+G+F+F+F+F+F+G+F+F+G+G+E+E+G+G+G+G+G+F+F+F+F+G+G+G+G+G+E+",
"E+G+G+G+F+F+F+F+G+F+F+F+F+G+G+E+E+G+F+G+G+G+F+F+F+F+F+G+G+F+G+E+E+G+F+G+F+F+G+F+F+F+F+F+G+G+G+E+E+G+G+G+G+G+G+G+G+G+G+G+G+G+G+E+",
"E+G+G+F+G+F+F+F+G+F+F+F+G+F+G+E+E+G+F+G+F+F+F+F+F+G+G+F+G+G+G+E+E+G+G+F+F+F+F+F+F+F+G+F+G+F+G+E+D+E+E+E+E+E+E+E+E+E+E+E+E+E+E+D+",
"E+G+G+F+F+F+F+F+F+G+G+G+G+F+G+E+E+G+G+F+G+F+F+F+G+F+F+F+F+F+G+E+E+G+G+G+G+F+F+F+F+G+G+F+F+G+G+E+D+E+E+E+E+E+E+E+E+E+E+E+E+E+E+D+",
"E+G+F+G+F+F+F+F+F+F+F+F+F+G+G+E+E+G+G+G+F+F+F+F+F+G+F+F+F+G+G+E+E+G+G+F+F+F+F+F+F+F+F+F+G+G+G+E+E+G+G+G+G+G+G+G+G+G+G+G+G+G+G+E+",
"E+G+G+G+F+F+F+F+G+G+G+F+F+F+G+E+E+G+F+F+F+F+G+F+F+F+F+G+G+G+G+E+E+G+F+G+F+F+F+F+G+F+F+G+G+G+G+E+E+G+G+G+F+F+G+G+F+G+G+F+F+G+G+E+",
"E+G+G+F+F+F+F+F+G+F+F+F+F+F+G+E+E+G+F+G+F+F+F+G+F+F+F+F+F+G+G+E+E+G+G+G+G+G+F+F+F+F+F+F+F+G+G+E+E+G+G+F+F+F+G+F+F+F+F+G+F+G+G+E+",
"E+G+F+F+G+G+F+F+F+F+F+G+F+G+G+E+E+G+G+G+F+F+F+G+F+F+F+F+G+F+G+E+E+G+F+G+G+G+F+G+G+F+F+G+G+G+G+E+E+G+F+F+F+F+F+F+G+F+F+F+G+F+G+E+",
"E+G+G+F+F+F+F+F+F+F+G+F+F+F+G+E+E+G+G+G+G+F+F+F+F+F+G+F+F+G+G+E+E+G+G+G+G+G+F+F+F+F+G+G+G+G+G+E+E+G+G+F+F+F+G+G+G+F+G+F+F+F+G+E+",
"E+G+F+G+G+G+F+F+F+F+F+G+G+F+G+E+E+G+F+G+F+F+G+F+F+F+F+F+G+G+G+E+E+G+G+G+G+G+G+G+G+G+G+G+G+G+G+E+E+G+G+G+F+F+F+F+G+F+F+F+F+G+G+E+",
"E+G+F+G+F+F+F+F+F+G+G+F+G+G+G+E+E+G+G+F+F+F+F+F+F+F+G+F+G+F+G+E+D+E+E+E+E+E+E+E+E+E+E+E+E+E+E+D+E+G+G+F+G+F+F+F+G+F+F+F+G+F+G+E+",
"E+G+G+F+G+F+F+F+G+F+F+F+F+F+G+E+E+G+G+G+G+F+F+F+F+G+G+F+F+G+G+E+D+E+E+E+E+E+E+E+E+E+E+E+E+E+E+D+E+G+G+F+F+F+F+F+F+G+G+G+G+F+G+E+",
"E+G+G+G+F+F+F+F+F+G+F+F+F+G+G+E+E+G+G+F+F+F+F+F+F+F+F+F+G+G+G+E+E+G+G+G+G+G+G+G+G+G+G+G+G+G+G+E+E+G+F+G+F+F+F+F+F+F+F+F+F+G+G+E+",
"E+G+F+F+F+F+G+F+F+F+F+G+G+G+G+E+E+G+F+G+F+F+F+F+G+F+F+G+G+G+G+E+E+G+G+G+F+F+G+G+F+G+G+F+F+G+G+E+E+G+G+G+F+F+F+F+G+G+G+F+F+F+G+E+",
"E+G+F+G+F+F+F+G+F+F+F+F+F+G+G+E+E+G+G+G+G+G+F+F+F+F+F+F+F+G+G+E+E+G+G+F+F+F+G+F+F+F+F+G+F+G+G+E+E+G+G+F+F+F+F+F+G+F+F+F+F+F+G+E+",
"E+G+G+G+F+F+F+G+F+F+F+F+G+F+G+E+E+G+F+G+G+G+F+G+G+F+F+G+G+G+G+E+E+G+F+F+F+F+F+F+G+F+F+F+G+F+G+E+E+G+F+F+G+G+F+F+F+F+F+G+F+G+G+E+",
"E+G+G+G+G+F+F+F+F+F+G+F+F+G+G+E+E+G+G+G+G+G+F+F+F+F+G+G+G+G+G+E+E+G+G+F+F+F+G+G+G+F+G+F+F+F+G+E+E+G+G+F+F+F+F+F+F+F+G+F+F+F+G+E+",
"E+G+F+G+F+F+G+F+F+F+F+F+G+G+G+E+E+G+G+G+G+G+G+G+G+G+G+G+G+G+G+E+E+G+G+G+F+F+F+F+G+F+F+F+F+G+G+E+E+G+F+G+G+G+F+F+F+F+F+G+G+F+G+E+",
"E+G+G+F+F+F+F+F+F+F+G+F+G+F+G+E+D+E+E+E+E+E+E+E+E+E+E+E+E+E+E+D+E+G+G+F+G+F+F+F+G+F+F+F+G+F+G+E+E+G+F+G+F+F+F+F+F+G+G+F+G+G+G+E+",
"E+G+G+G+G+F+F+F+F+G+G+F+F+G+G+E+D+E+E+E+E+E+E+E+E+E+E+E+E+E+E+D+E+G+G+F+F+F+F+F+F+G+G+G+G+F+G+E+E+G+G+F+G+F+F+F+G+F+F+F+F+F+G+E+",
"E+G+G+F+F+F+F+F+F+F+F+F+G+G+G+E+E+G+G+G+G+G+G+G+G+G+G+G+G+G+G+E+E+G+F+G+F+F+F+F+F+F+F+F+F+G+G+E+E+G+G+G+F+F+F+F+F+G+F+F+F+G+G+E+",
"E+G+F+G+F+F+F+F+G+F+F+G+G+G+G+E+E+G+G+G+F+F+G+G+F+G+G+F+F+G+G+E+E+G+G+G+F+F+F+F+G+G+G+F+F+F+G+E+E+G+F+F+F+F+G+F+F+F+F+G+G+G+G+E+",
"E+G+G+G+G+G+F+F+F+F+F+F+F+G+G+E+E+G+G+F+F+F+G+F+F+F+F+G+F+G+G+E+E+G+G+F+F+F+F+F+G+F+F+F+F+F+G+E+E+G+F+G+F+F+F+G+F+F+F+F+F+G+G+E+",
"E+G+F+G+G+G+F+G+G+F+F+G+G+G+G+E+E+G+F+F+F+F+F+F+G+F+F+F+G+F+G+E+E+G+F+F+G+G+F+F+F+F+F+G+F+G+G+E+E+G+G+G+F+F+F+G+F+F+F+F+G+F+G+E+",
"E+G+G+G+G+G+F+F+F+F+G+G+G+G+G+E+E+G+G+F+F+F+G+G+G+F+G+F+F+F+G+E+E+G+G+F+F+F+F+F+F+F+G+F+F+F+G+E+E+G+G+G+G+F+F+F+F+F+G+F+F+G+G+E+",
"E+G+G+G+G+G+G+G+G+G+G+G+G+G+G+E+E+G+G+G+F+F+F+F+G+F+F+F+F+G+G+E+E+G+F+G+G+G+F+F+F+F+F+G+G+F+G+E+E+G+F+G+F+F+G+F+F+F+F+F+G+G+G+E+",
"D+E+E+E+E+E+E+E+E+E+E+E+E+E+E+D+E+G+G+F+G+F+F+F+G+F+F+F+G+F+G+E+E+G+F+G+F+F+F+F+F+G+G+F+G+G+G+E+E+G+G+F+F+F+F+F+F+F+G+F+G+F+G+E+",
"D+E+E+E+E+E+E+E+E+E+E+E+E+E+E+D+E+G+G+F+F+F+F+F+F+G+G+G+G+F+G+E+E+G+G+F+G+F+F+F+G+F+F+F+F+F+G+E+E+G+G+G+G+F+F+F+F+G+G+F+F+G+G+E+",
"E+G+G+G+G+G+G+G+G+G+G+G+G+G+G+E+E+G+F+G+F+F+F+F+F+F+F+F+F+G+G+E+E+G+G+G+F+F+F+F+F+G+F+F+F+G+G+E+E+G+G+F+F+F+F+F+F+F+F+F+G+G+G+E+",
"E+G+G+G+F+F+G+G+F+G+G+F+F+G+G+E+E+G+G+G+F+F+F+F+G+G+G+F+F+F+G+E+E+G+F+F+F+F+G+F+F+F+F+G+G+G+G+E+E+G+F+G+F+F+F+F+G+F+F+G+G+G+G+E+",
"E+G+G+F+F+F+G+F+F+F+F+G+F+G+G+E+E+G+G+F+F+F+F+F+G+F+F+F+F+F+G+E+E+G+F+G+F+F+F+G+F+F+F+F+F+G+G+E+E+G+G+G+G+G+F+F+F+F+F+F+F+G+G+E+",
"E+G+F+F+F+F+F+F+G+F+F+F+G+F+G+E+E+G+F+F+G+G+F+F+F+F+F+G+F+G+G+E+E+G+G+G+F+F+F+G+F+F+F+F+G+F+G+E+E+G+F+G+G+G+F+G+G+F+F+G+G+G+G+E+",
"E+G+G+F+F+F+G+G+G+F+G+F+F+F+G+E+E+G+G+F+F+F+F+F+F+F+G+F+F+F+G+E+E+G+G+G+G+F+F+F+F+F+G+F+F+G+G+E+E+G+G+G+G+G+F+F+F+F+G+G+G+G+G+E+",
"E+G+G+G+F+F+F+F+G+F+F+F+F+G+G+E+E+G+F+G+G+G+F+F+F+F+F+G+G+F+G+E+E+G+F+G+F+F+G+F+F+F+F+F+G+G+G+E+E+G+G+G+G+G+G+G+G+G+G+G+G+G+G+E+",
"E+G+G+F+G+F+F+F+G+F+F+F+G+F+G+E+E+G+F+G+F+F+F+F+F+G+G+F+G+G+G+E+E+G+G+F+F+F+F+F+F+F+G+F+G+F+G+E+D+E+E+E+E+E+E+E+E+E+E+E+E+E+E+D+",
"E+G+G+F+F+F+F+F+F+G+G+G+G+F+G+E+E+G+G+F+G+F+F+F+G+F+F+F+F+F+G+E+E+G+G+G+G+F+F+F+F+G+G+F+F+G+G+E+D+E+E+E+E+E+E+E+E+E+E+E+E+E+E+D+",
"E+G+F+G+F+F+F+F+F+F+F+F+F+G+G+E+E+G+G+G+F+F+F+F+F+G+F+F+F+G+G+E+E+G+G+F+F+F+F+F+F+F+F+F+G+G+G+E+E+G+G+G+G+G+G+G+G+G+G+G+G+G+G+E+",
"E+G+G+G+F+F+F+F+G+G+G+F+F+F+G+E+E+G+F+F+F+F+G+F+F+F+F+G+G+G+G+E+E+G+F+G+F+F+F+F+G+F+F+G+G+G+G+E+E+G+G+G+F+F+G+G+F+G+G+F+F+G+G+E+",
"E+G+G+F+F+F+F+F+G+F+F+F+F+F+G+E+E+G+F+G+F+F+F+G+F+F+F+F+F+G+G+E+E+G+G+G+G+G+F+F+F+F+F+F+F+G+G+E+E+G+G+F+F+F+G+F+F+F+F+G+F+G+G+E+",
"E+G+F+F+G+G+F+F+F+F+F+G+F+G+G+E+E+G+G+G+F+F+F+G+F+F+F+F+G+F+G+E+E+G+F+G+G+G+F+G+G+F+F+G+G+G+G+E+E+G+F+F+F+F+F+F+G+F+F+F+G+F+G+E+",
"E+G+G+F+F+F+F+F+F+F+G+F+F+F+G+E+E+G+G+G+G+F+F+F+F+F+G+F+F+G+G+E+E+G+G+G+G+G+F+F+F+F+G+G+G+G+G+E+E+G+G+F+F+F+G+G+G+F+G+F+F+F+G+E+",
"E+G+F+G+G+G+F+F+F+F+F+G+G+F+G+E+E+G+F+G+F+F+G+F+F+F+F+F+G+G+G+E+E+G+G+G+G+G+G+G+G+G+G+G+G+G+G+E+E+G+G+G+F+F+F+F+G+F+F+F+F+G+G+E+",
"E+G+F+G+F+F+F+F+F+G+G+F+G+G+G+E+E+G+G+F+F+F+F+F+F+F+G+F+G+F+G+E+D+E+E+E+E+E+E+E+E+E+E+E+E+E+E+D+E+G+G+F+G+F+F+F+G+F+F+F+G+F+G+E+",
"E+G+G+F+G+F+F+F+G+F+F+F+F+F+G+E+E+G+G+G+G+F+F+F+F+G+G+F+F+G+G+E+D+E+E+E+E+E+E+E+E+E+E+E+E+E+E+D+E+G+G+F+F+F+F+F+F+G+G+G+G+F+G+E+",
"E+G+G+G+F+F+F+F+F+G+F+F+F+G+G+E+E+G+G+F+F+F+F+F+F+F+F+F+G+G+G+E+E+G+G+G+G+G+G+G+G+G+G+G+G+G+G+E+E+G+F+G+F+F+F+F+F+F+F+F+F+G+G+E+",
"E+G+F+F+F+F+G+F+F+F+F+G+G+G+G+E+E+G+F+G+F+F+F+F+G+F+F+G+G+G+G+E+E+G+G+G+F+F+G+G+F+G+G+F+F+G+G+E+E+G+G+G+F+F+F+F+G+G+G+F+F+F+G+E+",
"E+G+F+G+F+F+F+G+F+F+F+F+F+G+G+E+E+G+G+G+G+G+F+F+F+F+F+F+F+G+G+E+E+G+G+F+F+F+G+F+F+F+F+G+F+G+G+E+E+G+G+F+F+F+F+F+G+F+F+F+F+F+G+E+",
"E+G+G+G+F+F+F+G+F+F+F+F+G+F+G+E+E+G+F+G+G+G+F+G+G+F+F+G+G+G+G+E+E+G+F+F+F+F+F+F+G+F+F+F+G+F+G+E+E+G+F+F+G+G+F+F+F+F+F+G+F+G+G+E+",
"E+G+G+G+G+F+F+F+F+F+G+F+F+G+G+E+E+G+G+G+G+G+F+F+F+F+G+G+G+G+G+E+E+G+G+F+F+F+G+G+G+F+G+F+F+F+G+E+E+G+G+F+F+F+F+F+F+F+G+F+F+F+G+E+",
"E+G+F+G+F+F+G+F+F+F+F+F+G+G+G+E+E+G+G+G+G+G+G+G+G+G+G+G+G+G+G+E+E+G+G+G+F+F+F+F+G+F+F+F+F+G+G+E+E+G+F+G+G+G+F+F+F+F+F+G+G+F+G+E+",
"E+G+G+F+F+F+F+F+F+F+G+F+G+F+G+E+D+E+E+E+E+E+E+E+E+E+E+E+E+E+E+D+E+G+G+F+G+F+F+F+G+F+F+F+G+F+G+E+E+G+F+G+F+F+F+F+F+G+G+F+G+G+G+E+",
"E+G+G+G+G+F+F+F+F+G+G+F+F+G+G+E+D+E+E+E+E+E+E+E+E+E+E+E+E+E+E+D+E+G+G+F+F+F+F+F+F+G+G+G+G+F+G+E+E+G+G+F+G+F+F+F+G+F+F+F+F+F+G+E+",
"E+G+G+F+F+F+F+F+F+F+F+F+G+G+G+E+E+G+G+G+G+G+G+G+G+G+G+G+G+G+G+E+E+G+F+G+F+F+F+F+F+F+F+F+F+G+G+E+E+G+G+G+F+F+F+F+F+G+F+F+F+G+G+E+",
"E+G+F+G+F+F+F+F+G+F+F+G+G+G+G+E+E+G+G+G+F+F+G+G+F+G+G+F+F+G+G+E+E+G+G+G+F+F+F+F+G+G+G+F+F+F+G+E+E+G+F+F+F+F+G+F+F+F+F+G+G+G+G+E+",
"E+G+G+G+G+G+F+F+F+F+F+F+F+G+G+E+E+G+G+F+F+F+G+F+F+F+F+G+F+G+G+E+E+G+G+F+F+F+F+F+G+F+F+F+F+F+G+E+E+G+F+G+F+F+F+G+F+F+F+F+F+G+G+E+",
"E+G+F+G+G+G+F+G+G+F+F+G+G+G+G+E+E+G+F+F+F+F+F+F+G+F+F+F+G+F+G+E+E+G+F+F+G+G+F+F+F+F+F+G+F+G+G+E+E+G+G+G+F+F+F+G+F+F+F+F+G+F+G+E+",
"E+G+G+G+G+G+F+F+F+F+G+G+G+G+G+E+E+G+G+F+F+F+G+G+G+F+G+F+F+F+G+E+E+G+G+F+F+F+F+F+F+F+G+F+F+F+G+E+E+G+G+G+G+F+F+F+F+F+G+F+F+G+G+E+",
"E+G+G+G+G+G+G+G+G+G+G+G+G+G+G+E+E+G+G+G+F+F+F+F+G+F+F+F+F+G+G+E+E+G+F+G+G+G+F+F+F+F+F+G+G+F+G+E+E+G+F+G+F+F+G+F+F+F+F+F+G+G+G+E+",
"D+E+E+E+E+E+E+E+E+E+E+E+E+E+E+D+E+G+G+F+G+F+F+F+G+F+F+F+G+F+G+E+E+G+F+G+F+F+F+F+F+G+G+F+G+G+G+E+E+G+G+F+F+F+F+F+F+F+G+F+G+F+G+E+"};
