/* XPM */
static char * IMG_1_xpm[] = {
"64 64 256 2",
"  	c #000000",
". 	c #0000FF",
"+ 	c #00FF00",
"@ 	c #FF0000",
"# 	c #00FFFF",
"$ 	c #FFFF00",
"% 	c #FF00FF",
"& 	c #FFFFFF",
"* 	c #7B7B7B",
"= 	c #7B7B7B",
"- 	c #7B7B7B",
"; 	c #7B7B7B",
"> 	c #7B7B7B",
", 	c #7B7B7B",
"' 	c #7B7B7B",
") 	c #7B7B7B",
"! 	c #7B7B7B",
"~ 	c #7B7B7B",
"{ 	c #7B7B7B",
"] 	c #7B7B7B",
"^ 	c #7B7B7B",
"/ 	c #7B7B7B",
"( 	c #7B7B7B",
"_ 	c #7B7B7B",
": 	c #7B7B7B",
"< 	c #7B7B7B",
"[ 	c #7B7B7B",
"} 	c #7B7B7B",
"| 	c #7B7B7B",
"1 	c #7B7B7B",
"2 	c #7B7B7B",
"3 	c #7B7B7B",
"4 	c #7B7B7B",
"5 	c #7B7B7B",
"6 	c #7B7B7B",
"7 	c #7B7B7B",
"8 	c #7B7B7B",
"9 	c #7B7B7B",
"0 	c #7B7B7B",
"a 	c #7B7B7B",
"b 	c #7B7B7B",
"c 	c #7B7B7B",
"d 	c #7B7B7B",
"e 	c #7B7B7B",
"f 	c #7B7B7B",
"g 	c #7B7B7B",
"h 	c #7B7B7B",
"i 	c #7B7B7B",
"j 	c #7B7B7B",
"k 	c #7B7B7B",
"l 	c #7B7B7B",
"m 	c #7B7B7B",
"n 	c #7B7B7B",
"o 	c #7B7B7B",
"p 	c #7B7B7B",
"q 	c #7B7B7B",
"r 	c #7B7B7B",
"s 	c #7B7B7B",
"t 	c #7B7B7B",
"u 	c #7B7B7B",
"v 	c #7B7B7B",
"w 	c #7B7B7B",
"x 	c #7B7B7B",
"y 	c #7B7B7B",
"z 	c #7B7B7B",
"A 	c #7B7B7B",
"B 	c #7B7B7B",
"C 	c #7B7B7B",
"D 	c #7B7B7B",
"E 	c #7B7B7B",
"F 	c #7B7B7B",
"G 	c #7B7B7B",
"H 	c #7B7B7B",
"I 	c #7B7B7B",
"J 	c #7B7B7B",
"K 	c #7B7B7B",
"L 	c #7B7B7B",
"M 	c #7B7B7B",
"N 	c #7B7B7B",
"O 	c #7B7B7B",
"P 	c #7B7B7B",
"Q 	c #7B7B7B",
"R 	c #7B7B7B",
"S 	c #7B7B7B",
"T 	c #7B7B7B",
"U 	c #7B7B7B",
"V 	c #7B7B7B",
"W 	c #7B7B7B",
"X 	c #7B7B7B",
"Y 	c #7B7B7B",
"Z 	c #7B7B7B",
"` 	c #7B7B7B",
" .	c #7B7B7B",
"..	c #7B7B7B",
"+.	c #7B7B7B",
"@.	c #7B7B7B",
"#.	c #7B7B7B",
"$.	c #7B7B7B",
"%.	c #7B7B7B",
"&.	c #7B7B7B",
"*.	c #7B7B7B",
"=.	c #7B7B7B",
"-.	c #7B7B7B",
";.	c #7B7B7B",
">.	c #7B7B7B",
",.	c #7B7B7B",
"'.	c #7B7B7B",
").	c #7B7B7B",
"!.	c #7B7B7B",
"~.	c #7B7B7B",
"{.	c #7B7B7B",
"].	c #7B7B7B",
"^.	c #7B7B7B",
"/.	c #7B7B7B",
"(.	c #7B7B7B",
"_.	c #7B7B7B",
":.	c #7B7B7B",
"<.	c #7B7B7B",
"[.	c #7B7B7B",
"}.	c #7B7B7B",
"|.	c #7B7B7B",
"1.	c #7B7B7B",
"2.	c #7B7B7B",
"3.	c #7B7B7B",
"4.	c #7B7B7B",
"5.	c #7B7B7B",
"6.	c #7B7B7B",
"7.	c #7B7B7B",
"8.	c #7B7B7B",
"9.	c #7B7B7B",
"0.	c #7B7B7B",
"a.	c #7B7B7B",
"b.	c #7B7B7B",
"c.	c #7B7B7B",
"d.	c #7B7B7B",
"e.	c #7B7B7B",
"f.	c #7B7B7B",
"g.	c #7B7B7B",
"h.	c #7B7B7B",
"i.	c #7B7B7B",
"j.	c #7B7B7B",
"k.	c #7B7B7B",
"l.	c #7B7B7B",
"m.	c #7B7B7B",
"n.	c #7B7B7B",
"o.	c #7B7B7B",
"p.	c #7B7B7B",
"q.	c #7B7B7B",
"r.	c #7B7B7B",
"s.	c #7B7B7B",
"t.	c #7B7B7B",
"u.	c #7B7B7B",
"v.	c #7B7B7B",
"w.	c #7B7B7B",
"x.	c #7B7B7B",
"y.	c #7B7B7B",
"z.	c #7B7B7B",
"A.	c #7B7B7B",
"B.	c #7B7B7B",
"C.	c #7B7B7B",
"D.	c #7B7B7B",
"E.	c #7B7B7B",
"F.	c #7B7B7B",
"G.	c #7B7B7B",
"H.	c #7B7B7B",
"I.	c #7B7B7B",
"J.	c #7B7B7B",
"K.	c #7B7B7B",
"L.	c #7B7B7B",
"M.	c #7B7B7B",
"N.	c #7B7B7B",
"O.	c #7B7B7B",
"P.	c #7B7B7B",
"Q.	c #7B7B7B",
"R.	c #7B7B7B",
"S.	c #7B7B7B",
"T.	c #7B7B7B",
"U.	c #7B7B7B",
"V.	c #7B7B7B",
"W.	c #7B7B7B",
"X.	c #7B7B7B",
"Y.	c #7B7B7B",
"Z.	c #7B7B7B",
"`.	c #7B7B7B",
" +	c #7B7B7B",
".+	c #7B7B7B",
"++	c #7B7B7B",
"@+	c #7B7B7B",
"#+	c #7B7B7B",
"$+	c #7B7B7B",
"%+	c #7B7B7B",
"&+	c #7B7B7B",
"*+	c #7B7B7B",
"=+	c #7B7B7B",
"-+	c #7B7B7B",
";+	c #7B7B7B",
">+	c #7B7B7B",
",+	c #7B7B7B",
"'+	c #7B7B7B",
")+	c #7B7B7B",
"!+	c #7B7B7B",
"~+	c #7B7B7B",
"{+	c #7B7B7B",
"]+	c #7B7B7B",
"^+	c #7B7B7B",
"/+	c #7B7B7B",
"(+	c #7B7B7B",
"_+	c #7B7B7B",
":+	c #7B7B7B",
"<+	c #7B7B7B",
"[+	c #7B7B7B",
"}+	c #7B7B7B",
"|+	c #7B7B7B",
"1+	c #7B7B7B",
"2+	c #7B7B7B",
"3+	c #7B7B7B",
"4+	c #7B7B7B",
"5+	c #7B7B7B",
"6+	c #7B7B7B",
"7+	c #7B7B7B",
"8+	c #7B7B7B",
"9+	c #7B7B7B",
"0+	c #7B7B7B",
"a+	c #7B7B7B",
"b+	c #7B7B7B",
"c+	c #7B7B7B",
"d+	c #7B7B7B",
"e+	c #7B7B7B",
"f+	c #7B7B7B",
"g+	c #7B7B7B",
"h+	c #7B7B7B",
"i+	c #7B7B7B",
"j+	c #7B7B7B",
"k+	c #7B7B7B",
"l+	c #7B7B7B",
"m+	c #7B7B7B",
"n+	c #7B7B7B",
"o+	c #7B7B7B",
"p+	c #7B7B7B",
"q+	c #7B7B7B",
"r+	c #7B7B7B",
"s+	c #7B7B7B",
"t+	c #7B7B7B",
"u+	c #7B7B7B",
"v+	c #7B7B7B",
"w+	c #7B7B7B",
"x+	c #312910",
"y+	c #734A29",
"z+	c #413118",
"A+	c #5A4120",
"B+	c #4A3118",
"C+	c #6A4120",
"D+	c #4A3920",
"E+	c #523918",
"F+	c #5A4129",
"G+	c #835231",
"z+z+z+D+z+z+z+z+z+x+x+x+z+z+z+z+x+z+z+z+z+D+A+A+A+A+A+A+A+A+A+A+A+A+A+A+A+A+A+A+A+A+A+y+y+A+A+D+z+z+z+z+x+z+x+x+x+x+z+z+z+z+x+x+",
"D+D+D+D+D+D+D+D+D+D+D+D+D+z+x+z+z+z+x+z+z+D+A+A+A+A+A+A+A+A+A+A+A+A+A+A+A+A+A+A+A+A+A+A+A+A+A+D+z+z+x+z+z+D+D+D+D+D+D+D+D+D+D+D+",
"y+y+y+y+A+y+y+A+A+A+A+D+D+D+x+x+x+z+z+z+x+z+D+D+A+A+A+A+A+A+A+A+A+A+A+A+A+A+A+A+A+A+A+A+A+A+D+z+x+z+x+z+D+A+A+A+A+A+y+y+y+y+y+y+",
"y+G+G+G+G+G+G+G+G+y+y+y+D+z+z+z+z+z+z+x+x+x+z+z+z+z+z+z+z+z+z+z+z+D+D+D+D+D+A+A+A+A+A+A+A+D+z+x+D+D+z+D+D+A+y+y+y+y+y+y+y+y+y+y+",
"A+y+y+y+y+y+y+y+y+y+G+y+A+z+z+x+x+x+z+x+z+z+z+z+z+x+x+z+x+z+x+z+z+z+z+z+x+x+z+z+z+z+z+z+z+x+z+D+z+D+D+D+D+A+y+y+A+A+A+A+A+A+A+A+",
"A+A+A+A+D+A+A+A+y+y+y+G+A+D+z+x+z+D+A+A+A+A+A+D+D+D+D+A+D+z+z+z+z+z+z+z+z+z+z+z+z+D+z+D+D+D+D+z+x+z+z+D+D+y+y+A+A+A+A+A+A+A+A+A+",
"A+A+A+A+D+A+A+F+F+y+y+y+A+z+z+z+D+A+y+y+y+G+G+G+y+y+G+y+y+A+A+A+A+A+A+D+D+D+D+D+A+A+A+D+D+z+z+D+z+x+x+z+D+y+y+A+D+A+D+A+A+A+A+A+",
"A+A+A+D+D+y+A+F+A+A+A+y+D+z+z+D+A+y+y+G+y+y+y+y+y+y+y+y+y+y+y+y+G+y+y+y+y+y+y+y+y+y+y+y+y+A+A+D+z+z+x+z+D+y+A+D+A+A+A+D+D+A+A+A+",
"A+A+D+A+D+y+F+A+D+D+A+y+D+z+z+D+A+y+G+y+y+y+y+A+A+A+A+A+A+A+y+y+y+y+A+F+D+A+A+y+A+A+A+A+y+A+A+A+D+D+z+z+D+y+A+D+A+D+D+A+D+A+A+A+",
"A+A+A+D+A+A+F+D+D+y+D+A+D+z+z+D+A+y+y+A+A+A+A+A+A+A+A+A+y+A+y+A+A+y+y+D+A+A+A+A+y+A+A+A+A+A+A+A+D+z+D+z+A+y+A+A+A+D+D+A+A+A+A+A+",
"A+A+D+A+A+D+A+D+D+D+D+A+D+z+z+D+A+y+y+A+A+A+A+A+A+A+A+A+y+y+A+A+A+A+y+A+A+A+A+A+A+A+A+A+A+A+A+A+D+x+z+D+A+A+A+D+A+D+D+D+A+A+A+A+",
"A+A+A+D+A+A+D+A+D+D+D+D+z+x+D+D+A+y+A+y+A+A+A+A+A+D+A+A+y+A+y+y+A+A+A+A+A+A+A+A+A+A+A+A+A+A+A+A+D+D+z+D+y+A+D+D+D+D+D+D+D+D+A+A+",
"A+A+A+D+D+A+D+D+A+D+D+D+z+x+z+D+A+y+A+A+A+A+A+A+A+y+A+y+A+y+y+y+y+A+A+D+A+A+A+A+A+A+A+A+A+A+A+A+D+z+z+A+y+D+D+A+D+z+x+z+A+D+A+A+",
"A+A+A+A+D+A+A+D+D+D+D+z+z+x+z+D+A+y+A+y+y+A+A+A+A+y+y+A+A+A+D+y+y+A+A+y+A+A+A+A+A+A+A+A+A+A+A+D+z+z+D+A+A+D+A+z+x+x+z+A+D+D+A+A+",
"D+D+A+A+A+A+D+A+D+D+z+z+z+D+z+A+A+A+A+y+A+A+y+A+A+A+A+A+A+A+y+A+A+A+A+A+y+y+y+y+y+y+y+y+A+A+A+D+z+z+D+A+A+D+D+x+z+D+A+D+D+D+z+z+",
"z+z+z+D+D+D+A+z+D+z+z+z+D+z+z+D+A+A+A+y+A+A+D+A+A+A+A+A+A+A+A+A+y+A+A+A+y+y+y+y+A+A+A+A+A+A+A+D+z+z+D+A+D+D+A+z+D+A+A+D+D+z+z+z+",
"x+z+z+z+z+z+D+z+z+z+D+D+D+D+x+D+D+A+A+A+A+y+y+A+A+y+A+A+A+A+A+A+y+y+y+y+y+y+A+A+A+A+y+y+A+A+A+D+z+z+D+A+D+D+D+A+A+A+A+D+z+z+z+D+",
"z+z+z+x+x+z+D+D+x+x+z+z+x+D+D+x+z+D+A+A+A+A+y+A+A+A+A+A+A+A+A+A+A+y+y+y+A+A+A+A+y+A+A+y+A+A+A+D+x+z+D+A+D+D+D+A+D+z+z+z+z+z+z+D+",
"x+z+z+D+D+D+D+D+z+z+z+z+z+D+D+x+x+z+D+D+A+A+A+A+A+A+A+D+D+A+A+A+y+y+y+A+A+A+A+A+A+A+A+y+A+A+A+D+z+z+D+D+D+D+A+D+z+z+z+z+x+D+D+z+",
"x+z+A+A+A+A+A+A+A+A+A+A+D+D+D+z+z+z+z+x+z+z+z+z+z+z+z+z+z+z+z+A+y+A+A+A+A+A+A+A+A+y+A+A+A+A+D+D+z+z+x+z+z+z+z+z+z+z+z+x+D+D+x+D+",
"z+z+A+y+y+G+G+y+y+y+y+y+y+A+D+D+z+z+x+z+z+z+z+D+D+D+z+z+z+z+z+z+z+D+D+A+A+A+A+A+y+A+A+A+A+D+D+z+z+D+D+D+D+A+D+D+A+D+D+A+A+D+D+D+",
"D+D+y+y+y+y+A+A+A+y+A+A+A+y+y+A+D+z+z+x+D+x+z+D+D+A+A+D+D+D+z+z+z+z+x+x+D+D+D+D+A+D+D+D+D+z+z+x+D+D+A+y+y+y+y+y+y+y+y+y+y+A+D+z+",
"z+D+G+y+y+A+A+A+y+A+A+A+A+A+A+y+A+D+x+D+x+D+A+y+y+y+y+y+y+A+A+A+A+D+D+D+D+z+z+D+D+z+x+z+z+z+x+z+D+A+y+y+y+A+A+A+A+y+A+A+A+A+D+z+",
"x+D+G+y+A+A+A+y+A+y+A+A+A+y+A+y+A+A+z+D+D+A+y+y+G+G+G+G+G+G+G+y+y+y+y+A+A+A+A+D+D+z+z+z+x+z+x+z+A+y+y+y+y+A+A+A+A+y+A+A+A+A+D+z+",
"z+D+y+y+A+A+y+y+y+A+A+y+A+y+y+A+A+D+D+z+D+A+y+G+y+y+y+y+A+y+A+y+y+y+y+y+y+y+y+y+A+D+D+z+x+z+z+D+y+y+y+A+y+y+A+A+A+y+y+A+A+A+D+z+",
"D+D+y+y+A+y+A+A+y+y+A+A+A+A+A+A+A+D+D+z+D+y+G+y+y+y+y+A+y+y+y+y+y+A+A+y+A+A+A+A+A+A+D+D+z+z+D+D+y+y+A+A+A+A+A+A+A+A+A+A+A+A+D+z+",
"D+D+y+A+A+A+D+A+A+A+A+A+A+A+A+A+A+D+D+D+D+G+y+y+A+y+A+A+y+y+y+A+A+A+A+y+y+A+A+A+A+A+A+D+z+z+D+A+y+A+A+y+y+A+A+y+A+A+A+A+y+A+D+D+",
"D+D+y+A+A+A+y+A+y+A+A+A+A+A+A+A+A+D+x+D+A+y+y+A+F+A+A+y+A+y+y+y+A+D+A+A+A+A+A+A+A+A+A+D+z+z+A+y+y+y+y+A+A+y+y+A+A+A+A+A+A+A+D+D+",
"z+D+y+A+A+A+A+A+A+y+A+A+A+A+A+A+A+D+x+D+A+y+y+F+A+A+A+A+A+A+y+A+y+y+y+y+A+A+A+A+A+A+D+D+z+D+A+y+A+y+A+y+A+A+y+y+y+A+y+y+A+A+D+D+",
"x+D+y+A+A+A+y+y+A+A+y+A+A+A+A+y+A+D+z+D+A+y+y+A+A+y+A+D+A+A+A+A+A+A+y+y+A+y+y+y+A+A+D+D+z+D+A+y+y+A+A+y+A+A+A+A+y+y+A+A+A+A+D+z+",
"x+D+y+A+A+y+y+A+A+A+A+D+A+A+A+A+D+D+z+D+A+y+A+A+A+A+A+y+A+A+y+A+A+A+A+y+A+y+y+A+A+A+D+z+z+A+y+A+A+A+A+y+A+A+y+A+y+A+A+y+A+A+D+z+",
"x+D+A+y+y+A+A+y+A+A+A+y+A+A+y+A+D+D+x+D+D+y+A+F+A+A+A+A+A+A+y+y+A+A+A+A+y+y+A+A+A+D+z+z+D+A+A+A+A+A+A+y+y+A+A+A+y+y+A+A+A+A+D+z+",
"z+D+A+A+y+A+A+A+A+A+A+A+A+A+A+A+A+D+D+D+D+y+A+A+A+A+A+A+y+D+A+A+A+A+A+A+A+A+A+A+A+D+x+z+D+A+A+y+y+A+y+y+A+A+A+A+y+A+A+A+A+A+D+D+",
"D+z+A+A+A+A+A+A+A+A+A+y+A+A+A+A+A+D+D+D+A+A+D+y+A+A+A+y+y+y+y+y+A+A+A+A+A+A+A+D+z+z+z+z+D+z+z+D+A+A+A+A+A+A+A+A+A+A+A+A+A+A+D+z+",
"D+z+A+A+A+A+A+A+D+A+A+A+A+A+A+A+A+D+x+D+A+A+D+y+A+A+A+y+y+y+G+y+A+A+A+A+y+y+D+z+D+z+z+z+D+D+D+z+z+D+A+A+A+y+A+A+A+A+y+A+A+A+D+D+",
"D+z+A+A+A+A+A+A+y+A+y+A+A+A+A+A+A+D+x+D+D+A+D+A+A+A+A+A+y+A+y+y+y+A+A+A+A+D+z+A+D+z+x+z+y+A+A+D+D+z+D+A+A+A+A+A+A+A+A+A+A+A+D+z+",
"z+z+A+A+A+A+A+A+A+y+y+A+A+A+A+A+A+D+z+D+D+A+A+A+A+y+y+A+y+A+y+y+A+A+A+A+A+A+y+A+D+x+x+z+A+y+y+y+y+y+y+A+A+A+A+A+A+A+A+A+A+A+D+D+",
"D+z+A+A+A+A+A+A+A+y+A+A+A+y+A+A+A+D+D+D+D+A+A+D+A+A+y+y+A+y+y+y+A+y+A+y+y+A+A+y+A+z+D+z+A+A+y+A+A+A+A+A+A+A+A+A+A+A+A+A+y+y+A+D+",
"z+D+A+y+A+A+A+A+A+A+A+y+A+A+A+A+A+D+D+D+D+D+A+D+D+A+y+A+A+A+y+y+A+y+A+A+y+y+A+A+y+D+D+z+A+A+A+A+A+A+A+A+A+A+A+A+A+A+A+y+y+A+A+z+",
"x+D+A+y+A+D+A+A+A+A+A+A+A+A+A+A+A+D+z+D+z+D+D+D+D+A+A+A+A+A+A+A+A+A+y+A+A+A+A+A+A+D+z+D+A+A+A+A+A+A+A+A+A+A+A+y+y+y+y+y+A+A+D+z+",
"z+D+A+y+A+y+A+A+A+A+A+A+A+A+A+A+A+A+D+D+x+D+x+x+z+z+D+D+D+A+A+A+A+A+A+A+A+A+A+A+D+z+z+D+A+y+A+A+y+A+A+A+A+A+y+y+y+y+A+y+A+A+D+D+",
"x+z+A+A+A+y+A+A+A+y+y+y+A+A+A+A+A+D+z+D+z+z+z+z+z+D+x+z+z+z+D+D+A+A+A+A+A+A+A+D+z+x+x+D+A+A+y+A+A+A+A+A+A+y+y+y+A+A+A+A+A+A+D+z+",
"x+z+A+A+y+A+A+A+A+A+y+A+A+A+A+A+D+D+D+z+D+A+A+A+A+D+D+z+z+z+x+z+z+D+D+D+A+A+D+z+x+x+D+D+A+A+A+A+D+A+A+A+A+y+y+A+A+A+A+A+A+A+D+D+",
"z+x+A+y+y+A+A+A+A+A+A+A+A+A+A+A+D+z+z+D+D+A+A+y+y+y+A+A+D+z+z+z+x+D+D+z+D+z+z+z+x+D+D+z+D+D+D+D+A+A+A+A+y+y+A+A+A+A+A+A+A+A+D+D+",
"D+x+D+A+A+A+A+D+D+D+D+A+A+A+A+D+z+z+z+D+D+A+y+G+G+G+y+y+A+A+A+A+A+D+D+D+z+z+x+z+D+x+z+z+D+D+A+A+A+A+A+y+A+A+A+y+A+A+A+A+A+D+D+D+",
"z+D+x+z+z+z+z+z+z+z+z+z+z+z+z+z+z+z+x+z+D+A+G+y+y+y+G+G+G+y+A+A+A+A+A+A+D+D+z+z+x+z+x+z+z+D+D+D+A+A+A+A+A+A+A+A+A+D+D+D+D+D+D+z+",
"D+z+D+D+z+x+D+D+x+x+x+D+D+x+D+x+z+z+D+z+D+A+G+y+y+y+y+y+y+G+G+y+y+A+A+A+A+A+A+A+A+A+A+D+D+z+z+x+D+D+D+D+D+D+D+x+D+D+z+z+x+z+z+D+",
"A+D+D+D+D+D+D+D+D+D+z+z+z+D+D+D+z+z+z+z+D+A+y+y+A+A+A+A+A+A+A+y+y+y+y+y+y+A+A+A+y+A+A+A+A+A+A+z+D+x+z+x+z+D+D+D+D+D+z+z+D+D+D+z+",
"A+A+A+A+A+D+A+A+A+A+D+A+D+A+A+D+D+z+z+z+D+A+A+A+A+A+A+A+A+A+A+A+A+A+A+y+y+y+y+y+y+y+y+y+y+A+A+D+D+x+z+z+D+A+A+A+A+A+A+A+A+A+A+y+",
"y+y+y+y+y+y+y+y+y+y+y+y+y+G+y+y+D+D+z+z+D+A+A+A+A+A+A+A+A+A+A+A+A+A+A+A+A+A+A+A+A+A+y+y+y+A+A+D+z+D+z+D+A+y+G+G+G+G+y+G+y+y+y+y+",
"A+A+A+A+A+A+A+y+A+A+A+A+y+y+y+y+y+D+z+z+D+A+D+D+A+A+A+A+A+A+A+y+A+A+A+A+A+A+D+y+A+A+A+A+A+y+A+A+z+D+D+D+y+y+y+y+A+A+A+A+A+A+A+A+",
"A+A+A+A+A+A+A+A+A+y+A+A+A+A+y+y+y+A+D+z+D+A+y+D+z+D+A+A+A+A+A+A+y+y+A+A+A+A+y+A+A+A+A+A+A+A+A+A+z+z+D+D+G+y+y+A+A+A+A+A+A+A+A+A+",
"y+A+A+A+A+A+A+A+A+y+A+D+y+A+A+A+y+A+D+z+D+A+y+y+D+z+z+D+A+y+A+A+A+A+A+A+A+A+A+A+A+A+A+A+A+A+y+D+z+x+D+D+y+y+y+A+A+A+A+A+y+A+A+A+",
"A+A+y+A+y+A+A+A+y+A+A+y+y+A+A+A+y+y+A+z+z+D+y+y+y+D+z+z+z+A+y+A+z+A+A+A+A+A+A+A+A+y+A+A+y+y+A+D+z+x+D+D+y+y+y+y+A+A+y+A+A+A+A+A+",
"A+A+A+A+A+A+A+A+A+A+A+A+A+A+A+A+A+y+A+x+z+D+y+A+A+y+A+D+D+z+A+A+y+A+A+A+A+A+A+A+A+A+A+y+A+y+A+D+z+D+D+D+y+y+A+A+y+A+A+A+A+A+A+A+",
"A+A+y+A+A+A+A+D+A+A+A+A+A+y+A+A+A+y+A+z+z+D+y+A+A+A+y+y+A+D+D+A+A+A+A+A+A+A+A+y+y+y+A+y+y+A+A+D+z+D+z+D+y+A+A+y+A+A+A+A+A+A+A+A+",
"A+A+A+A+A+y+A+y+A+A+A+A+y+A+A+A+A+y+A+x+z+D+A+A+A+A+A+A+y+y+A+A+A+A+A+A+A+A+D+A+y+A+A+y+A+A+A+D+z+D+z+D+y+A+A+A+A+A+A+A+A+y+y+A+",
"A+A+D+A+A+A+A+A+A+y+y+y+A+A+A+A+A+A+D+z+z+D+A+y+A+A+A+A+A+A+A+A+A+A+A+A+A+A+y+A+A+y+y+A+y+A+A+D+z+x+z+D+y+A+A+A+y+A+y+A+A+A+A+A+",
"A+D+D+A+A+A+A+y+A+A+A+y+A+A+A+y+y+A+D+z+z+D+A+A+A+y+A+A+A+A+A+A+A+A+A+A+A+A+A+A+y+y+y+y+y+y+y+D+D+D+z+D+A+A+A+A+A+A+A+A+A+A+A+y+",
"A+A+A+A+A+A+A+y+A+A+A+A+y+A+D+y+A+A+z+D+z+D+A+A+A+A+A+A+A+A+A+A+A+A+D+A+A+A+A+A+A+y+y+y+y+y+y+A+z+x+D+z+D+D+A+y+A+A+A+A+A+A+A+A+",
"A+A+D+A+A+A+A+A+A+A+A+A+y+A+y+y+A+D+z+D+z+D+A+A+A+A+A+A+A+A+A+A+A+A+y+A+A+A+A+A+A+y+A+y+y+y+y+D+z+x+D+z+D+D+A+A+A+A+A+A+A+A+A+A+",
"A+A+A+A+A+A+D+A+D+D+D+A+y+A+A+A+A+z+z+z+z+D+A+y+A+A+A+A+A+A+A+A+A+A+A+A+A+A+A+A+A+y+y+A+A+A+y+D+z+D+D+z+D+z+z+z+z+z+D+D+D+D+D+A+",
"z+z+z+z+z+z+z+z+z+z+z+z+z+z+z+z+z+z+z+z+z+D+A+A+A+y+A+A+A+A+A+A+A+A+A+A+A+A+A+A+y+y+A+y+A+y+A+A+z+D+z+x+z+z+D+z+z+z+z+z+D+z+D+z+",
"z+z+z+D+z+D+D+x+z+z+x+z+x+D+z+z+D+z+x+z+z+D+A+A+A+A+A+A+A+A+A+A+A+A+A+A+A+A+A+A+A+y+A+A+y+A+A+A+z+D+x+x+x+x+D+D+x+x+x+x+z+D+z+D+"};
