/* XPM */
static char * IMG_3_xpm[] = {
"64 64 256 2",
"  	c #000000",
". 	c #0000FF",
"+ 	c #00FF00",
"@ 	c #FF0000",
"# 	c #00FFFF",
"$ 	c #FFFF00",
"% 	c #FF00FF",
"& 	c #FFFFFF",
"* 	c #7B7B7B",
"= 	c #7B7B7B",
"- 	c #7B7B7B",
"; 	c #7B7B7B",
"> 	c #7B7B7B",
", 	c #7B7B7B",
"' 	c #7B7B7B",
") 	c #7B7B7B",
"! 	c #7B7B7B",
"~ 	c #7B7B7B",
"{ 	c #7B7B7B",
"] 	c #7B7B7B",
"^ 	c #7B7B7B",
"/ 	c #7B7B7B",
"( 	c #7B7B7B",
"_ 	c #7B7B7B",
": 	c #7B7B7B",
"< 	c #7B7B7B",
"[ 	c #7B7B7B",
"} 	c #7B7B7B",
"| 	c #7B7B7B",
"1 	c #7B7B7B",
"2 	c #7B7B7B",
"3 	c #7B7B7B",
"4 	c #7B7B7B",
"5 	c #7B7B7B",
"6 	c #7B7B7B",
"7 	c #7B7B7B",
"8 	c #7B7B7B",
"9 	c #7B7B7B",
"0 	c #7B7B7B",
"a 	c #7B7B7B",
"b 	c #7B7B7B",
"c 	c #7B7B7B",
"d 	c #7B7B7B",
"e 	c #7B7B7B",
"f 	c #7B7B7B",
"g 	c #7B7B7B",
"h 	c #7B7B7B",
"i 	c #7B7B7B",
"j 	c #7B7B7B",
"k 	c #7B7B7B",
"l 	c #7B7B7B",
"m 	c #7B7B7B",
"n 	c #7B7B7B",
"o 	c #7B7B7B",
"p 	c #7B7B7B",
"q 	c #7B7B7B",
"r 	c #7B7B7B",
"s 	c #7B7B7B",
"t 	c #7B7B7B",
"u 	c #7B7B7B",
"v 	c #7B7B7B",
"w 	c #7B7B7B",
"x 	c #7B7B7B",
"y 	c #7B7B7B",
"z 	c #7B7B7B",
"A 	c #7B7B7B",
"B 	c #7B7B7B",
"C 	c #7B7B7B",
"D 	c #7B7B7B",
"E 	c #7B7B7B",
"F 	c #7B7B7B",
"G 	c #7B7B7B",
"H 	c #7B7B7B",
"I 	c #7B7B7B",
"J 	c #7B7B7B",
"K 	c #7B7B7B",
"L 	c #7B7B7B",
"M 	c #7B7B7B",
"N 	c #7B7B7B",
"O 	c #7B7B7B",
"P 	c #7B7B7B",
"Q 	c #7B7B7B",
"R 	c #7B7B7B",
"S 	c #7B7B7B",
"T 	c #7B7B7B",
"U 	c #7B7B7B",
"V 	c #7B7B7B",
"W 	c #7B7B7B",
"X 	c #7B7B7B",
"Y 	c #7B7B7B",
"Z 	c #7B7B7B",
"` 	c #7B7B7B",
" .	c #7B7B7B",
"..	c #7B7B7B",
"+.	c #7B7B7B",
"@.	c #7B7B7B",
"#.	c #7B7B7B",
"$.	c #7B7B7B",
"%.	c #7B7B7B",
"&.	c #7B7B7B",
"*.	c #7B7B7B",
"=.	c #7B7B7B",
"-.	c #7B7B7B",
";.	c #7B7B7B",
">.	c #7B7B7B",
",.	c #7B7B7B",
"'.	c #7B7B7B",
").	c #7B7B7B",
"!.	c #7B7B7B",
"~.	c #7B7B7B",
"{.	c #7B7B7B",
"].	c #7B7B7B",
"^.	c #7B7B7B",
"/.	c #7B7B7B",
"(.	c #7B7B7B",
"_.	c #7B7B7B",
":.	c #7B7B7B",
"<.	c #7B7B7B",
"[.	c #7B7B7B",
"}.	c #7B7B7B",
"|.	c #7B7B7B",
"1.	c #7B7B7B",
"2.	c #7B7B7B",
"3.	c #7B7B7B",
"4.	c #7B7B7B",
"5.	c #7B7B7B",
"6.	c #7B7B7B",
"7.	c #7B7B7B",
"8.	c #7B7B7B",
"9.	c #7B7B7B",
"0.	c #7B7B7B",
"a.	c #7B7B7B",
"b.	c #7B7B7B",
"c.	c #7B7B7B",
"d.	c #7B7B7B",
"e.	c #7B7B7B",
"f.	c #7B7B7B",
"g.	c #7B7B7B",
"h.	c #7B7B7B",
"i.	c #7B7B7B",
"j.	c #7B7B7B",
"k.	c #7B7B7B",
"l.	c #7B7B7B",
"m.	c #7B7B7B",
"n.	c #7B7B7B",
"o.	c #7B7B7B",
"p.	c #7B7B7B",
"q.	c #7B7B7B",
"r.	c #7B7B7B",
"s.	c #7B7B7B",
"t.	c #7B7B7B",
"u.	c #7B7B7B",
"v.	c #7B7B7B",
"w.	c #7B7B7B",
"x.	c #7B7B7B",
"y.	c #7B7B7B",
"z.	c #7B7B7B",
"A.	c #7B7B7B",
"B.	c #7B7B7B",
"C.	c #7B7B7B",
"D.	c #7B7B7B",
"E.	c #7B7B7B",
"F.	c #7B7B7B",
"G.	c #7B7B7B",
"H.	c #7B7B7B",
"I.	c #7B7B7B",
"J.	c #7B7B7B",
"K.	c #7B7B7B",
"L.	c #7B7B7B",
"M.	c #7B7B7B",
"N.	c #7B7B7B",
"O.	c #7B7B7B",
"P.	c #7B7B7B",
"Q.	c #7B7B7B",
"R.	c #7B7B7B",
"S.	c #7B7B7B",
"T.	c #7B7B7B",
"U.	c #7B7B7B",
"V.	c #7B7B7B",
"W.	c #7B7B7B",
"X.	c #7B7B7B",
"Y.	c #7B7B7B",
"Z.	c #7B7B7B",
"`.	c #7B7B7B",
" +	c #7B7B7B",
".+	c #7B7B7B",
"++	c #7B7B7B",
"@+	c #7B7B7B",
"#+	c #7B7B7B",
"$+	c #7B7B7B",
"%+	c #7B7B7B",
"&+	c #7B7B7B",
"*+	c #7B7B7B",
"=+	c #7B7B7B",
"-+	c #7B7B7B",
";+	c #7B7B7B",
">+	c #7B7B7B",
",+	c #7B7B7B",
"'+	c #7B7B7B",
")+	c #7B7B7B",
"!+	c #7B7B7B",
"~+	c #7B7B7B",
"{+	c #7B7B7B",
"]+	c #7B7B7B",
"^+	c #7B7B7B",
"/+	c #7B7B7B",
"(+	c #7B7B7B",
"_+	c #7B7B7B",
":+	c #7B7B7B",
"<+	c #7B7B7B",
"[+	c #7B7B7B",
"}+	c #7B7B7B",
"|+	c #7B7B7B",
"1+	c #7B7B7B",
"2+	c #7B7B7B",
"3+	c #7B7B7B",
"4+	c #7B7B7B",
"5+	c #7B7B7B",
"6+	c #7B7B7B",
"7+	c #7B7B7B",
"8+	c #7B7B7B",
"9+	c #7B7B7B",
"0+	c #7B7B7B",
"a+	c #7B7B7B",
"b+	c #7B7B7B",
"c+	c #7B7B7B",
"d+	c #7B7B7B",
"e+	c #7B7B7B",
"f+	c #7B7B7B",
"g+	c #7B7B7B",
"h+	c #7B7B7B",
"i+	c #7B7B7B",
"j+	c #7B7B7B",
"k+	c #7B7B7B",
"l+	c #7B7B7B",
"m+	c #7B7B7B",
"n+	c #7B7B7B",
"o+	c #7B7B7B",
"p+	c #7B7B7B",
"q+	c #7B7B7B",
"r+	c #7B7B7B",
"s+	c #7B7B7B",
"t+	c #7B7B7B",
"u+	c #7B7B7B",
"v+	c #7B7B7B",
"w+	c #7B7B7B",
"x+	c #7B7B7B",
"y+	c #7B7B7B",
"z+	c #7B7B7B",
"A+	c #7B7B7B",
"B+	c #7B7B7B",
"C+	c #7B7B7B",
"D+	c #7B7B7B",
"E+	c #625231",
"F+	c #6A5241",
"G+	c #5A4A31",
"F+F+G+F+F+F+F+F+F+F+G+F+F+F+F+F+E+G+F+F+F+F+F+F+F+F+F+F+F+F+F+G+E+F+F+F+F+F+G+F+F+F+F+F+F+G+F+F+F+F+F+F+F+F+F+F+F+F+F+G+F+F+F+F+",
"F+F+G+F+F+F+F+F+F+F+G+E+F+F+F+F+F+G+F+F+F+F+F+F+F+F+F+F+F+F+F+G+F+F+F+E+E+E+G+F+F+F+F+F+F+G+F+F+F+F+F+F+F+F+F+F+F+F+F+G+F+F+F+F+",
"G+G+G+G+G+G+G+G+G+G+G+E+E+F+F+F+F+G+G+G+G+G+G+G+G+F+F+F+F+F+F+G+G+G+G+G+G+G+G+G+G+G+G+G+G+G+F+F+F+F+F+F+G+G+G+G+G+G+G+G+G+G+G+G+",
"F+F+G+F+F+F+F+F+F+F+G+F+F+E+F+F+F+F+F+F+F+E+E+E+G+F+F+F+F+F+F+G+F+F+F+F+F+F+F+F+F+F+F+F+F+G+F+F+F+F+F+F+G+F+F+F+F+F+F+F+F+F+F+F+",
"F+F+G+F+F+F+F+F+F+F+G+F+F+F+F+F+F+F+F+F+F+F+F+F+G+F+F+F+F+F+F+G+F+F+F+F+F+F+F+F+F+F+F+F+F+G+F+F+F+F+F+F+G+F+F+F+F+F+F+F+F+F+F+F+",
"F+F+G+F+F+F+F+F+F+F+G+E+F+F+F+F+F+F+F+F+F+F+F+F+G+F+F+F+F+F+F+G+F+F+F+F+F+F+F+F+F+F+F+F+F+G+F+F+F+F+F+F+G+F+F+F+F+F+F+F+F+F+F+F+",
"F+F+G+F+F+F+F+F+F+F+G+F+E+F+F+F+E+F+F+F+F+F+E+E+G+F+F+F+F+F+F+G+F+F+F+F+F+F+F+F+F+F+F+F+F+G+F+F+F+F+F+F+G+F+F+F+F+F+F+F+F+F+F+F+",
"F+F+G+F+F+F+F+F+F+F+G+F+F+E+E+E+E+E+F+F+E+E+E+E+G+F+F+F+F+F+F+G+F+F+F+F+F+F+F+F+F+F+F+F+F+G+F+F+F+F+F+F+G+F+F+F+F+F+F+F+F+F+F+F+",
"F+F+G+G+G+G+G+G+G+G+G+G+G+G+G+G+G+G+G+G+G+G+G+G+G+G+G+G+G+G+G+G+G+G+G+G+G+G+G+F+F+F+F+F+F+G+G+G+G+G+G+G+G+G+G+G+G+G+G+G+F+F+F+F+",
"F+F+G+F+F+F+F+F+F+F+G+F+F+F+F+F+F+F+F+F+F+F+F+F+G+F+F+F+F+F+F+F+F+F+F+F+F+F+G+F+F+F+F+F+F+G+E+E+F+F+F+F+F+F+F+E+F+F+F+G+F+F+F+F+",
"F+F+G+F+F+F+F+F+F+F+G+F+F+F+F+F+F+F+F+F+F+F+F+F+G+F+F+F+F+F+F+F+F+F+F+F+F+F+G+F+F+F+F+F+F+G+E+F+F+F+F+F+F+F+F+F+F+F+F+G+F+F+F+F+",
"F+F+G+F+F+F+F+F+F+F+G+F+F+F+F+F+F+F+F+F+F+F+F+F+G+F+F+F+F+F+F+F+F+F+F+F+F+F+G+F+F+F+F+F+F+G+E+F+F+F+F+F+F+F+E+F+F+F+F+G+F+F+F+F+",
"F+F+G+F+F+F+F+F+F+F+G+F+F+F+F+F+F+F+F+F+F+F+F+F+G+F+F+F+F+F+F+F+F+F+F+F+F+F+G+F+F+F+F+F+F+G+F+F+F+F+F+F+F+E+E+F+F+F+F+G+F+F+F+F+",
"F+F+G+F+F+F+F+F+F+F+G+F+F+F+F+F+F+F+F+F+F+F+F+F+G+F+F+F+F+F+F+F+F+F+F+F+F+F+G+F+F+F+F+F+F+G+F+F+E+F+F+F+F+E+F+F+F+F+F+G+F+F+F+F+",
"G+G+G+F+F+F+F+F+F+F+G+F+F+F+F+F+F+G+G+G+G+G+G+G+G+F+F+F+F+F+F+G+G+G+G+G+G+G+G+G+G+G+G+G+G+G+F+E+F+F+F+F+G+G+G+G+G+G+G+G+G+G+G+G+",
"F+F+F+F+F+F+F+F+F+F+G+F+F+F+F+F+F+G+E+F+F+F+F+F+G+F+F+F+F+F+F+G+F+F+F+F+F+F+F+F+F+F+F+F+F+G+E+F+F+F+F+F+G+F+F+F+F+F+F+G+F+F+F+F+",
"F+F+F+F+F+F+F+F+F+F+G+F+F+F+F+F+F+G+F+E+F+F+F+F+G+F+F+F+F+F+F+G+F+F+F+F+F+F+F+F+F+F+F+F+F+G+F+F+F+F+F+E+G+F+F+F+F+F+F+G+F+F+F+F+",
"F+F+F+F+F+F+F+F+F+F+G+F+F+F+F+F+F+G+E+F+F+F+E+F+G+F+F+F+F+F+F+G+F+F+F+F+F+F+F+F+F+F+F+F+F+G+F+E+F+F+E+E+G+F+F+F+F+F+F+G+F+F+F+F+",
"F+F+F+F+F+F+F+F+F+F+G+F+F+F+F+F+F+G+F+F+F+F+F+F+G+F+F+F+F+F+F+G+F+F+F+F+F+F+F+F+F+F+F+F+F+G+E+F+F+F+F+E+G+F+F+F+F+F+F+G+F+F+F+F+",
"F+F+F+F+F+F+F+F+F+F+G+F+F+F+F+F+F+G+F+E+F+F+F+F+G+F+F+F+F+F+F+G+F+F+F+F+F+F+F+F+F+F+F+F+F+G+F+F+F+E+F+E+G+F+F+F+F+F+F+G+F+F+F+F+",
"G+G+G+G+G+G+G+G+G+G+G+G+G+G+G+G+G+G+E+F+F+F+E+F+G+G+G+G+G+G+G+G+G+G+G+G+G+G+G+F+F+F+F+F+F+G+G+G+G+G+G+G+G+F+F+F+F+F+F+G+G+G+G+G+",
"F+E+E+G+F+F+F+F+F+F+F+F+F+F+F+F+F+G+E+F+F+F+F+F+F+F+F+F+F+E+F+G+F+F+F+F+F+F+G+F+F+F+F+F+F+G+F+F+F+F+F+F+F+F+F+F+F+F+F+G+E+E+E+F+",
"F+F+E+G+F+F+F+F+F+F+F+F+F+F+F+F+F+G+E+F+F+F+F+E+F+F+E+F+F+E+F+G+F+F+F+F+F+F+G+F+F+F+F+F+F+G+F+F+F+F+F+F+F+F+F+F+F+F+F+G+E+F+F+F+",
"F+F+E+G+F+F+F+F+F+F+F+F+F+F+F+F+F+G+E+E+F+F+F+F+F+F+F+E+E+E+F+G+F+F+F+F+F+F+G+F+F+F+F+F+F+G+F+F+F+F+F+F+F+F+F+F+F+F+F+G+E+F+F+F+",
"F+F+F+G+F+F+F+F+F+F+F+F+F+F+F+F+F+G+F+F+E+F+F+F+E+F+F+F+E+E+F+G+F+F+F+F+F+F+G+F+F+F+F+F+F+G+F+F+F+F+F+F+F+F+F+F+F+F+F+G+F+F+F+F+",
"F+F+F+G+F+F+F+F+F+F+F+F+F+F+F+F+F+G+F+E+F+F+F+F+F+E+F+F+F+E+E+G+F+F+F+F+F+F+G+F+F+F+F+F+F+G+F+F+F+F+F+F+F+F+F+F+F+F+F+G+F+E+F+F+",
"F+F+F+G+G+G+G+G+G+G+G+F+F+F+F+F+F+G+G+G+G+G+G+G+G+G+G+G+G+G+G+G+F+F+F+F+F+F+G+G+G+G+G+G+G+G+G+G+G+G+G+G+G+G+F+G+G+G+G+G+F+F+F+F+",
"F+F+E+E+F+F+F+F+F+E+G+F+F+F+F+F+F+G+F+F+F+F+F+F+G+F+F+F+F+F+F+F+F+F+F+F+F+F+G+E+E+E+E+E+E+F+E+F+F+E+E+E+G+F+F+F+F+F+F+G+F+F+F+F+",
"F+E+E+F+F+F+F+F+F+E+G+F+F+F+F+F+F+G+F+F+F+F+F+F+G+F+F+F+F+F+F+F+F+F+F+F+F+F+G+F+F+E+F+F+F+F+F+F+F+F+E+E+G+F+F+F+F+F+F+G+F+E+E+F+",
"F+F+F+E+F+E+E+F+E+E+G+F+F+F+F+F+F+G+F+F+F+F+F+F+G+F+F+F+F+F+F+F+F+F+F+F+F+F+G+F+F+F+F+F+E+F+F+E+F+F+F+E+G+F+F+F+F+F+F+G+F+F+F+F+",
"F+F+F+F+E+E+E+F+F+F+G+F+F+F+F+F+F+G+F+F+F+F+F+F+G+F+F+F+F+F+F+F+F+F+F+F+F+F+G+E+F+F+F+E+F+F+F+F+F+F+F+E+G+F+F+F+F+F+F+G+F+E+F+F+",
"F+F+F+F+F+F+F+E+E+E+G+F+F+F+F+F+F+G+F+F+F+F+F+F+G+F+F+F+F+F+F+F+F+F+F+F+F+F+G+E+F+E+E+E+F+F+F+F+E+F+F+F+G+F+F+F+F+F+F+G+F+E+E+E+",
"G+G+G+G+G+G+G+G+G+G+G+G+G+G+G+G+G+G+F+F+F+F+F+F+G+G+G+G+G+G+G+G+G+G+G+G+G+G+G+G+G+G+G+G+G+G+F+F+F+F+E+F+G+F+F+F+F+F+F+G+G+G+G+G+",
"F+F+F+G+F+F+F+F+F+F+G+F+F+F+F+F+F+F+F+F+F+F+F+F+G+F+F+F+F+F+F+G+F+E+F+F+F+F+E+F+F+E+E+E+E+G+F+F+F+F+E+F+G+F+F+F+F+F+F+F+F+F+F+F+",
"F+F+F+G+F+F+F+F+F+F+G+F+F+F+F+F+F+F+F+F+F+F+F+F+G+F+F+F+F+F+F+G+F+F+E+F+F+F+F+E+F+F+F+E+E+G+F+F+F+F+F+E+G+F+F+F+F+F+F+F+F+F+F+F+",
"F+F+F+G+F+F+F+F+F+F+G+F+F+F+F+F+F+F+F+F+F+F+F+F+G+F+F+F+F+F+F+G+E+F+F+F+F+F+F+F+F+F+F+F+E+G+F+F+F+F+F+F+G+F+F+F+F+F+F+F+F+F+F+F+",
"F+F+F+G+F+F+F+F+F+F+G+F+F+F+F+F+F+F+F+F+F+F+F+F+G+F+F+F+F+F+F+G+E+E+F+F+F+F+F+E+F+F+F+F+E+G+E+F+F+F+F+F+G+F+F+F+F+F+F+F+F+F+F+F+",
"F+F+F+G+F+F+F+F+F+F+G+F+F+F+F+F+F+F+F+F+F+F+F+F+G+F+F+F+F+F+F+G+E+E+E+F+F+F+F+F+E+F+F+F+E+G+E+E+F+F+F+F+G+F+F+F+F+F+F+F+F+F+F+F+",
"G+G+G+G+F+F+F+F+F+F+G+G+G+G+G+G+G+G+G+G+G+G+G+G+G+F+F+F+F+F+F+G+G+G+G+G+G+G+G+F+F+F+F+F+F+G+G+G+G+G+G+G+G+G+G+G+G+G+G+G+G+G+G+G+",
"F+F+F+G+F+F+F+F+F+F+F+F+F+F+F+F+F+G+F+E+F+F+F+F+G+F+F+F+F+F+F+F+F+F+F+F+F+F+G+F+F+F+F+F+F+G+F+F+F+F+F+F+G+F+F+F+F+F+F+F+F+F+F+F+",
"F+F+F+G+F+F+F+F+F+F+F+F+F+F+F+F+F+G+F+E+F+F+F+F+G+F+F+F+F+F+F+F+F+F+F+F+F+F+G+F+F+F+F+E+F+G+F+F+F+F+F+F+G+F+F+F+F+F+F+F+F+F+F+F+",
"F+F+F+G+F+F+F+F+F+F+F+F+F+F+F+F+F+G+F+E+F+F+F+F+G+F+F+F+F+F+F+F+F+F+F+F+F+F+G+F+F+F+F+F+F+G+F+F+F+F+F+F+G+F+F+F+F+F+F+F+F+F+F+F+",
"F+F+F+G+F+F+F+F+F+F+F+F+F+F+F+F+F+G+F+E+F+F+F+F+G+F+F+F+F+F+F+F+F+F+F+F+F+F+G+F+F+F+E+F+E+G+F+F+F+F+F+F+G+F+F+F+F+F+F+F+F+F+F+F+",
"F+F+F+G+F+F+F+F+F+F+F+F+F+F+F+F+F+G+F+E+F+F+F+F+G+F+F+F+F+F+F+F+F+F+F+F+F+F+G+F+F+F+F+E+E+G+F+F+F+F+F+F+G+F+F+F+F+F+F+F+F+F+F+F+",
"F+F+F+G+G+G+G+G+G+G+G+G+G+G+G+G+G+G+F+E+F+E+F+F+G+G+G+G+G+G+G+G+G+G+G+G+G+G+G+G+G+G+G+G+G+G+F+F+F+F+F+F+G+G+G+G+G+G+G+G+F+F+F+F+",
"F+F+F+G+F+F+F+F+F+F+G+F+F+F+F+F+F+G+F+F+F+F+F+F+F+F+F+E+E+E+E+G+F+F+F+F+F+F+G+F+F+F+F+F+F+F+F+F+F+F+F+F+G+E+E+F+F+F+F+G+F+F+F+F+",
"F+F+F+G+F+F+F+F+F+F+G+F+F+F+F+F+F+G+F+F+F+E+F+E+F+F+F+F+F+F+E+G+F+F+F+F+F+F+G+F+F+F+F+F+F+F+F+F+F+F+F+F+G+E+F+F+F+F+F+G+F+F+F+F+",
"F+F+F+G+F+F+F+F+F+F+G+F+F+F+F+F+F+G+E+F+F+F+F+F+F+F+F+F+E+F+E+G+F+F+F+F+F+F+G+F+F+F+F+F+F+F+F+F+F+F+F+F+G+E+F+F+F+F+E+G+F+F+F+F+",
"F+F+F+G+F+F+F+F+F+F+G+F+F+F+F+F+F+G+F+F+E+F+E+F+F+F+F+F+F+E+E+G+F+F+F+F+F+F+G+F+F+F+F+F+F+F+F+F+F+F+F+F+G+F+F+F+F+F+E+G+F+F+F+F+",
"F+F+F+G+F+F+F+F+F+F+G+F+F+F+F+F+F+G+F+E+E+F+F+E+E+F+F+F+F+F+F+G+F+F+F+F+F+F+G+F+F+F+F+F+F+F+F+F+F+F+F+F+G+F+F+F+F+F+F+G+F+F+F+F+",
"G+G+G+G+F+F+F+F+F+F+G+F+F+F+F+F+F+G+G+G+G+G+G+G+G+G+G+G+G+G+G+G+F+F+F+F+F+F+G+G+G+G+G+G+G+G+G+G+G+G+G+G+G+F+F+F+E+F+E+G+G+G+G+G+",
"F+F+F+F+F+F+F+F+F+F+G+F+F+F+F+F+F+G+F+F+F+F+F+F+F+F+F+F+F+F+F+G+F+F+F+F+F+F+F+F+F+F+F+F+F+G+E+F+F+F+F+F+F+F+F+F+E+F+E+G+F+F+F+F+",
"F+F+F+F+F+F+F+F+F+F+G+F+F+F+F+F+F+G+F+F+F+F+F+F+F+F+F+F+F+F+F+G+F+F+F+F+F+F+F+F+F+F+F+F+F+G+F+F+F+F+F+F+F+F+F+F+E+F+E+G+F+F+F+F+",
"F+F+F+F+F+F+F+F+F+F+G+F+F+F+F+F+F+G+F+F+F+F+F+F+F+F+F+F+F+F+F+G+F+F+F+F+F+F+F+F+F+F+F+F+F+G+E+F+F+F+F+E+F+F+E+F+E+F+E+G+F+F+F+F+",
"F+F+F+F+F+F+F+F+F+F+G+F+F+F+F+F+F+G+F+F+F+F+F+F+F+F+F+F+F+F+F+G+F+F+F+F+F+F+F+F+F+F+F+F+F+G+E+E+F+F+F+E+F+F+E+F+F+F+E+G+F+F+F+F+",
"G+G+G+G+G+G+G+G+G+G+G+G+G+G+G+G+G+G+F+F+F+F+F+F+G+G+G+G+G+G+G+G+G+G+G+G+G+G+G+G+G+G+G+G+G+G+G+G+G+G+G+G+G+G+G+G+G+G+G+G+G+G+G+G+",
"F+F+G+F+F+F+F+F+F+F+F+F+F+F+F+F+F+G+F+F+F+F+F+F+G+F+E+F+F+F+F+F+F+F+F+E+F+E+G+F+F+F+F+F+F+F+F+F+F+F+F+F+G+F+F+F+F+F+F+F+F+F+F+F+",
"F+F+G+F+F+F+F+F+F+F+F+F+F+F+F+F+F+G+F+F+F+F+F+F+G+E+F+F+F+F+F+F+F+F+F+F+E+E+G+F+F+F+F+F+F+F+F+F+F+F+F+F+G+F+F+F+F+F+F+F+F+F+F+F+",
"F+F+G+F+F+F+F+F+F+F+F+F+F+F+F+F+F+G+F+F+F+F+F+F+G+F+F+F+F+F+F+F+E+F+F+F+F+E+G+F+F+F+F+F+F+F+F+F+F+F+F+F+G+F+F+F+F+F+F+F+F+F+F+F+",
"F+F+G+F+F+F+F+F+F+F+F+F+F+F+F+F+F+G+F+F+F+F+F+F+G+F+F+F+F+E+E+E+F+F+F+F+F+E+G+F+F+F+F+F+F+F+F+F+F+F+F+F+G+F+F+F+F+F+F+F+F+F+F+F+",
"F+F+G+F+F+F+F+F+F+F+G+G+G+G+G+G+G+G+G+G+G+G+G+G+G+G+G+G+G+G+G+G+E+F+F+F+F+F+G+F+F+F+F+F+F+G+G+G+G+G+G+G+G+G+G+G+G+G+G+G+F+F+F+F+",
"F+F+G+F+F+F+F+F+F+F+G+E+E+F+F+E+E+G+F+F+F+F+F+F+F+F+F+F+F+F+F+G+E+F+F+F+E+F+G+F+F+F+F+F+F+G+F+F+F+F+F+F+F+F+F+F+F+F+F+G+F+F+F+F+",
"F+F+G+F+F+F+F+F+F+F+G+F+F+E+F+F+E+G+F+F+F+F+F+F+F+F+F+F+F+F+F+G+F+F+F+F+F+E+G+F+F+F+F+F+F+G+F+F+F+F+F+F+F+F+F+F+F+F+F+G+F+F+F+F+",
"F+F+G+F+F+F+F+F+F+F+G+F+F+F+F+F+F+G+F+F+F+F+F+F+F+F+F+F+F+F+F+G+F+F+F+F+F+F+G+F+F+F+F+F+F+G+F+F+F+F+F+F+F+F+F+F+F+F+F+G+F+F+F+F+"};
