/* XPM */
static char * IMG_6_xpm[] = {
"128 128 45 1",
" 	c #232B0F",
".	c #2F371F",
"+	c #F900FF",
"@	c #53573B",
"#	c #5B6347",
"$	c #3F472B",
"%	c #0F1700",
"&	c #474F33",
"*	c #373F27",
"=	c #171F07",
"-	c #676B4F",
";	c #6F7357",
">	c #7B7F63",
",	c #6F5743",
"'	c #2F2F2F",
")	c #4B4B4B",
"!	c #4F3B2B",
"~	c #474747",
"{	c #1B1B1B",
"]	c #131313",
"^	c #0B0B0B",
"/	c #232323",
"(	c #272727",
"_	c #070707",
":	c #434343",
"<	c #373737",
"[	c #575757",
"}	c #3B3B3B",
"|	c #6F6F6F",
"1	c #4F4F4F",
"2	c #777777",
"3	c #636363",
"4	c #5B5B5B",
"5	c #8B8B8B",
"6	c #A78F77",
"7	c #9B7F6B",
"8	c #B79F87",
"9	c #AF977F",
"0	c #9F876F",
"a	c #533F1F",
"b	c #2B230F",
"c	c #000000",
"d	c #937B63",
"e	c #BFA78F",
"f	c #838383",
" .       .       .       .       .       .       .    +++++++++++++++++++++  .       .       .       .       .       .       .  ",
"@#@$.%.$@#@$.%.$@#@$.%.$@#@$.%.$@#@$.%.$@#@$.%.$@#@$.%+++++++++++++++++++++$@#@$.%.$@#@$.%.$@#@$.%.$@#@$.%.$@#@$.%.$@#@$.%.$@#@$",
"@#@@$.$@@#@@$.$@@#@@$.$@@#@@$.$@@#@@$.$@@#@@$.$@@#@@$.+++++++++++++++++++++@@#@@$.$@@#@@$.$@@#@@$.$@@#@@$.$@@#@@$.$@@#@@$.$@@#@@",
"&&&#&$&#&&&#&$&#&&&#&$&#&&&#&$&#&&&#&$&#&&&#&$&#&&&#&$+++++++++++++++++++++#&&&#&$&#&&&#&$&#&&&#&$&#&&&#&$&#&&&#&$&#&&&#&$&#&&&#",
"@$@#$.$#@$@#$.$#@$@#$.$#@$@#$.$#@$@#$.$#@$@#$.$#@$@#$.+++++++++++++++++++++#@$@#$.$#@$@#$.$#@$@#$.$#@$@#$.$#@$@#$.$#@$@#$.$#@$@#",
".#. @.& .#. @.& .#. @.& .#. @.& .#. @.& .#. @.& .#. @.+++++++++++++++++++++ .#. @.& .#. @.& .#. @.& .#. @.& .#. @.& .#. @.& .#. ",
"#.#@#$#@#.#@#$#@#.#@#$#@#.#@#$#@#.#@#$#@#.#@#$#@#.#@#$+++++++++++++++++++++@#.#@#$#@#.#@#$#@#.#@#$#@#.#@#$#@#.#@#$#@#.#@#$#@#.#@",
"&@& . . &@& . . &@& . . &@& . . &@& . . &@& . . &@& . +++++++++++++++++++++ &@& . . &@& . . &@& . . &@& . . &@& . . &@& . . &@& ",
"*** %%= *** %%= *** %%= *** %%= *** %%= *** %%= *** %%+++++++++++++++++++++ *** %%= *** %%= *** %%= *** %%= *** %%= *** %%= *** ",
"-----------;----;>>;--#-;--------#-----;;;;;;----,---;+++++++++++++++++++++---#----------------;----;>>;--#-;--------#-----;;;;;",
"$@@@;#@&@####-;;>;>;-#@@##@@&@@@@'$&@@#-;;;;;#$@@@;@##+++++++++++++++++++++#)&@@@##@$@@@;#@&@####-;;>;>;-#@@##@@&@@@@'$&@@#-;;;;",
"$&&@;#@@@@##--;;;;;--&###@$@@@@#@$$&@#--;-;;--&@;###-;+++++++++++++++++++++#@&#@$@#@$&&@;#@@@@##--;;;;;--&###@$@@@@#@$$&@#--;-;;",
"$*&&&&&&&&@@@@@@#@@&&@&&&*!~&&&&&&&$&@@@@#####&&@#@&##+++++++++++++++++++++&&$&***&&$*&&&&&&&&@@@@@@#@@&&@&&&*!~&&&&&&&$&@@@@###",
"{]{]]^]'/{{/{/'/''''((//{{/('(''/{//'///{/{/{{{{((/{{{+++++++++++++++++++++^_^{{{^{{{{{{{{{'/]{{{]]/////{//{{{{{{{{{{/{{{{{{{^^{",
"/{((({(:)<'<)))~~~~)[)~)<<'[):)<~)~:~:::<<<:<'<<<''<''+++++++++++++++++++++{{{//]{'::'//'<:<''((''/<<</(':<'//('':'<<::<<<<'(({'",
"''}}}}::|1:12|2233|2||||43142|))2|4|41|)4):41:4:}}}:::+++++++++++++++++++++''('/('}):}(/(}}):}}:)::|)):::~):1:'})1::14111::}})1)",
"'}}::}::1:::2||23|22||4|4|14||44414||111|414:11)}'}:::+++++++++++++++++++++}}}}}}}}::'''}::::}(::::)):))::1431}')1))444:}}}}}4:1",
":}:):::):::1)|2|||||4%%%1))1542|44|||41413311:1:(/'}::+++++++++++++++++++++::::)))::}'')::144)::::}41)11:%%%41:::11111)}}}}}}))4",
"):::::)::4)::|11|2|3 *$$ 1:))1444|||41):1411)1)}}((}14+++++++++++++++++++++)):))111:}')4|42|441)::111114 *$$ 4111111))}}}}}}}})1",
"):::::11:1))141)|= *@@##@&.=:)1)4||44))11)))1411:'((::+++++++++++++++++++++4):)11341))111234|531))141= *@@##@&.=41))}}}<'}}}}}:1",
". *.= = :1111:'4 &@###-##-#&.==))|111)=      =% 1)'(}:+++++++++++++++++++++4)))11 %=. *.= = 42|1)111 &@###-##-#&.==:'''<''=     ",
"*$*@@ @&$=11%=($*#-#;>6>;#-@$*$ =|1=.$@ &&&@&$*  ='}}}+++++++++++++++++++++:):)= .*.*$*@@ @&$=|4%=)$*#-#;>6>;#-@$*$ =}'=.$@ &&&@",
"&&--##$;&&  . $$#-;;;787;#-;#@&  . .#;$@#-@#@*&**.=::)+++++++++++++++++++++:))=.**&@&&--##$;&&  . $$#-;;;787;#-;#@&  . .#;$@#-@#",
";>69;#&@-;&#@*$$;-;;;060;--;;@@*@#@##&#;>960;-#@@&.=:1+++++++++++++++++++++11=.&@@#-;>69;#&@-;&#@*$$;-;;;060;--;;@@*@#@##&#;>960",
"6999>;-.>9#;-#@$@#;;>686>;;--@&$@;#>>.-;>99990>-#@*.14+++++++++++++++++++++11 $@-->>6999>;-.>9#;-#@$@#;;>686>;;--@&$@;#>>.-;>999",
"-;>>>;-*;6-9#-;@@-#;>686>>;;@;;@;6-8>*#;>>>>>06>;#@*=1+++++++++++++++++++++4= &&#>6>-;>>>;-*;6-9#-;@@-#;>686>>;;@;;@;6-8>*#;>>>>",
"-->;;#@*;9#8&--;#;;>>060>>;--;@-;8;8; &#-;>-;>>6>--ab1+++++++++++++++++++++4 $@-;>>>-->;;#@*;9#8&--;#;;>>060>>;--;@-;8;8; &#-;>-",
";-;##@**;-#;#-#;#;;>>>6>>>;;;;;;#6;6;*#@&#;-;;>>>-#&.4+++++++++++++++++++++1.@-;>>>;;-;##@**;-#;#-#;#;;>>>6>>>;;;;;;#6;6;*#@&#;-",
"-;#@@#@ ;;-;$@-;--;;>>0>;;-;;;#-#>->; @#@@#;-;;;>>;@&|+++++++++++++++++++++).@@;>;;;-;#@@#@ ;;-;$@-;--;;>>0>;;-;;;#-#>->; @#@@#;",
"@#&@&@*%>##>@-->>-;->>>>>;;;;;;;#>#;>%*@&@&#@##;>>;#&3+++++++++++++++++++++1.&#>>;##@#&@&@*%>##>@-->>-;->>>>>;;;;;;;#>#;>%*@&@&#",
"$$. .*% @@@-#;;>>>--;>>>;-;>;;;;#-@#; %*. .$$##-;;#&.4+++++++++++++++++++++1.&#>;-##$$. .*% @@@-#;;>>>--;>>>;-;>;;;;#-@#; %*. .$",
"*==   %&&.;$-#>;06;;;>;>;-;60;>#-$;*#&%   ==*&$&;>;#.1+++++++++++++++++++++1*@->;&&&*==   %&&.;$-#>;06;;;>;>;-;60;>#-$;*#&%   ==",
"=%%==%.#$ &$;@;;>9->06;60;-9>;;@;$& $#.%===%==.#;;;@*1+++++++++++++++++++++1.@->-#$==%%==%.#$ &$;@;;>9->06;60;-9>;;@;$& $#.%===%",
"|%%%= **=..@@*&>-;#;>9;9>;#;->&*#@..=** ====|= @-##$.:+++++++++++++++++++++) $&;#@.=3%%%= **=..@@*&>-;#;>9;9>;#;->&*#@..=** ====",
"4%%%= .== %@#$ @@&@;;;#;;;@&@@*$@@% ==. ===%|2=*@>#.=1+++++++++++++++++++++33.#;@*=31%%%= .== %@#$ @@&@;;;#;;;@&@@*$@@% ==. ===%",
"11%*%=%=%. @#@*=$&&&@#&#@&&&$.&#@@  %=%==*=|||2%*-&  3+++++++++++++++++++++|| &.*%2411%*%=%=%. @#@*=$&&&@#&#@&&&$.&#@@  %=%==*=)",
":)13%%%%=.*#-&&@. .**$.$**. .@#-&#* %% %%114||2=.&%=31+++++++++++++++++++++3|=.&.=41)}:)%%%%=.*#-&&@. .**$.$**. .@#-&#* %% %%)41",
"[|444=%%=*&#@;#;@.c **.** c.@;#;$#&*%=.%)1414|2=% %444+++++++++++++++++++++43|=. =1)}'}:1=%%=*&#@;#;@.c **.** c.@;#;$#&*%=.%1111",
"44144)%%=$@@$;-;;@.$##&##$.@;;-;$#@$% .%11114||=%%=334+++++++++++++++++++++144====4):}}))1%%=$@@$;-;;@.$##&##$.@;;-;$#@$% .%141)",
"}:|4):%%=$#@$-->#>#;6;#>6;#>#>--&@#$%.%11::143|=%%3334+++++++++++++++++++++1333%%=411111))%%=$#@$-->#>#;6;#>6;#>#>--&@#$%.%111))",
"))~)}((% .#$*&#-@>d>6>;>6>d>@-#&*$#.%=1:1:)1141%%%44|4+++++++++++++++++++++11|43%=3413||4))% .#$*&#-@>d>6>;>6>d>@-#&*$#.%=:::11:",
"4)}''''%*.@&**$&@;dd6>->6dd;@&$**&@.=%1)):})114%%34424+++++++++++++++++++++::443|%|413|44))%*.@&**$&@;dd6>->6dd;@&$**&@.=%}::::}",
"1))}'':%*&*&@>>00>-98>->89->000;@&*&* %):1::1114334)||+++++++++++++++++++++:)433||4411441)4%*&*&@>>00>-98>->89->000;@&*&* %:::}}",
"41)''}%@>#&.&698e80-e>&6e-08e896&.&#-@.%:41:111433:114+++++++++++++++++++++1144433411))114%@>#&.&698e80-e>&6e-08e896&.&#-@.%}}}}",
"441''%->-&@..&#>>d0>-6&9->0d>>#& .@>-;-$%)1:)141433111+++++++++++++++++++++1134144111):)1%->-&@..&#>>d0>-6&9->0d>>#& .@>-;-$%::}",
"44)'%&;;@#;&.=***&#0@d d@0#&** =.&;;>#@.%4):)141133311+++++++++++++++++++++:1|441441):)1%&;;@#;&.=***&#0@d d@0#&** =.&;;>#@.%::}",
")1}(%$-;&>#@.c&>#$*=.&%&.=*$>@ c*>#>;;$.%):))111143341+++++++++++++++++++++)4|4444141)14%$-;&>#@.c&>#$*=.&%&.=*$>@ c*>#>;;$.%:))",
")}''%*-#>&>>*.=. * cc===cc * .=*@>>>>>;.=::)41:114331)+++++++++++++++++++++44444144|3))4%*-#>&>>*.=. * cc===cc * .=*@>>>>>;.=)))",
":}:1=$@>>*#&#&.$&  @&.=.&@  &$.@@&#->-@$=}})11:))14411+++++++++++++++++++++1444114||4)))=$@>>*#&#&.$&  @&.=.&@  &$.@@&#->-@$=141",
"1:41% .@#... %.#>-.#>#.#>#.->#.% .&@#@..::::11):144144+++++++++++++++++++++1|44113|44111% .@#... %.#>-.#>#.#>#.->#.% .&@#@..34[4",
"|1441% .&  = %.-;#%;8#&#8;%#;-.% = .&. =1:}}:4))44:444+++++++++++++++++++++44||414|444)4)% .&  = %.-;#%;8#&#8;%#;-.% = .&. =3344",
"|11)13%   ==%.>&>>*>6;&>e>*>>&>.%==    14):}}}))|41141+++++++++++++++++++++43||344|11))141%   ==%.>&>>*>6;&>e>*>>&>.%==    ||333",
"1):)144%  % .@#>8&#;86-6e9#&8>#@. %= %1441))'''})))111+++++++++++++++++++++1113|4444)':))1:%  % .@#>8&#;86-6e9#&8>#@. %= %13|334",
")::1311|==.&@#>#>.$e86#68e>&e>>#@&. =144|1):''(''}:::)+++++++++++++++++++++}:))1111)'//}))))==.&@#>#>.$e86#68e>&e>>#@&. =33|2||4",
"1:141)1|=..$&*##8$>>->=>-#6#8#.*&$.. |34|4))''''((((''+++++++++++++++++++++})1)))::}''})1|41=..$&*##8$>>->=>-#6#8#.*&$.. 1)133||",
"[1144))4=*@&.&;.e#9 .#%#. 9#e.;&.&@*%344314))'('''///'+++++++++++++++++++++)141)):'/'')44341=*@&.&;.e#9 .#%#. 9#e.;&.&@*%1)|4313",
"411144:1=*&.%;>&0;;c=====c>;0&>;=.& %313144):///::'''}+++++++++++++++++++++444441:}:::))1334=*&.%;>&0;;c=====c>;0&>;=.& %1)})143",
"4114||)1=*&.=%&&#>*ccccccc*>#&&%=.&*%34441)):'//}))}}:+++++++++++++++++++++)34341))))))))134=*&.=%&&#>*ccccccc*>#&&%=.&*%)}}})14",
"444|||1)=$$ .8.&#>@ccccccc@>#&.8. $.%4341::))}//(:)1))+++++++++++++++++++++)1411))1444411113=$$ .8.&#>@ccccccc@>#&.8. $.%:'}')44",
"44442|1)=$@ #8%.>;;*0c#c0*;;>.$8# @$=11::))44)'(/}14|3+++++++++++++++++++++))11:}:41114411)4=$@ #8%.>;;*0c#c0*;;>.$8# @$=}}}}:4}",
":44[|44%$&;*-6%%$$&@;;-;;@&$$%%6-*;#.%11411|41}''':141+++++++++++++++++++++4|441):))1:)))))%$&;*-6%%$$&@;;-;;@&$$%%6-*;#.%)}}'::",
"1444343 $#>.>>%%%@$=*ccc*.$@%%%>>.>#$.4444:441)::::))1+++++++++++++++++++++:1411)::)):<:)}) $#>.>>%%%@$=*ccc*.$@%%%>>.>#$.):}':}",
"))|14|=.$-> ;d%$=$.&;=c=;&.$=$%d; >#$*=143144)))))))):+++++++++++++++++++++114441):1)1:::)=.$-> ;d%$=$.&;=c=;&.$=$%d; >#$*=):'}:",
")111||=*$#>=#;*;*=$#;*c*;#.=*;*;#=>#$*=:14131)111111))+++++++++++++++++++++1141:1~)::1:))1=*$#>=#;*;*=$#;*c*;#.=*;*;#=>#$*=):'::",
"1113||%*$#>=&#.#**=;#&c&#;=**#.-#=>#$ %)111|11441411):+++++++++++++++++++++)111:1:)::11111%*$#>=&#.#**=;#&c&#;=**#.-#=>#$ %)}}::",
"111:4|| *;>=.* & =.#&@ @&#.= & *.=>#* )1)1441444|314))+++++++++++++++++++++)11111:1)114):<~ *;>=.* & =.#&@ @&#.= & *.=>#* 4:''}:",
")11)441 *##&==@-&&*->-#->-*&&-@==&##* )11144114||44)1)+++++++++++++++++++++)1114111133:)}(< *##&==@-&&*->-#->-*&&-@==&##* 4:''(:",
":))1111= &#*.*@;@$.&-@*@-& $#>;*$*#& =)441|4443|441141+++++++++++++++++++++))11144431)):}((= &#*.*@;@$.&-@*@-& $#>;*$*#& =1:}'}:",
":1111411=.*  $*@.. .$ % $. %.#&$$ *.=~)41)3||311114444+++++++++++++++++++++111)))111)}::}(((=.*  $*@.. .$ % $. %.#&$$ *.=41::}:1",
"141111)11==%*..  % % %%% % %. .. % =141111333|1))11111+++++++++++++++++++++):::)11:1)':1:}(((==%*..  % % %%% % %. .. % =11)::}:4",
")441:111:443%===)1.%%%%%%%.}'%==%.41441114|341)))1))))+++++++++++++++++++++:)))111)1}(}:1:}(}:)1%===1:.%%%%%%%.44%==%.4331)))::4",
"':111114114|4)}':))):}}}'''''}}:)41)441)14344444331))}+++++++++++++++++++++)1))111):(((:11):))114441)::[[1[~:11[4|||4344||))1::4",
"''::11))::111}'(':}':}}}}:}}'}):))}:|41144111444||31)'+++++++++++++++++++++:111111):}<}:1|413111141))~:1::1:)14444443||4||)::114",
"'':111)::)11:/(//'}}:}:)))))))11)))143144411))1444|4)'+++++++++++++++++++++:11411):::::14|3341)})11111}::<::)114|444[||4|4:::144",
"<'111)::))4)}///'}))))4444|1114411)143144333))14|11|1}+++++++++++++++++++++')1111(<:::14334434)})111414:<}}:111444441||4|4:::)13",
":}141):)4::}'''}})~14|333341113411)1):)144431})441131)+++++++++++++++++++++':11)1<(<:144441434)})144[4|::}}})):1444443|444:::)[|",
":1441)')):'(/}})444|3333|34114341441)/})1144)::1411111+++++++++++++++++++++::)11)}(}~4434~11441:)14444|::}'}}}}:4414443|4::11)13",
"::)1))4:}'(/'})444333443||4433341433)}/)1111)}}144)144+++++++++++++++++++++:))1))}})144441):~11)114|||3:1}}('''}1414414|1)1[))13",
")))114)}'(/('}}:1411443334443|33433|41)))):)):))111|44+++++++++++++++++++++4))111}11111111~<::))114||231::'((('}::14414|4):11:14",
"44|4441:'/'}}}'}:111||333313||334|3|4434)))))}))14||4[+++++++++++++++++++++1))41)13411111))):}})114||||1::'((((':::)14||1)}13143",
"444|441)'':):}}'})1|144[1113|343||3|~114444111))443444+++++++++++++++++++++11):))11)141111:}}})11444|341::((('(':::)43||1)')4143",
"4434441):)11)}}::))144||333|||34:/:)1(4|||4|1[:1|4||1|+++++++++++++++++++++1):}}:):11314|1:(()114111144311'((//(})1433333)':14|4",
"314::1)))4||1)))))144||4|44||||1':|431|43|4||[11|||24|+++++++++++++++++++++4)}(((})11:1:44:(})444)1)1443):}''//'})4333341)::4144",
"|41::::11443411144||4414|1)||41::4|||)44|||||1142|4|||+++++++++++++++++++++4)}'/:::::4::)):/:13341):)))))))::}}'}})444341)})4114",
"21}'::4444||2333422244|3||4441:111|||:4)||||41)1111||3+++++++++++++++++++++)}:}:(::~1)4:)):)12||4)::)))::):111)}(''::)|4)))43111",
"3){'::4||||4|223)22|142|||2241):14|4:~|3|||||||1)11411+++++++++++++++++++++):1:<14:1:1:4)::132231):::4):}):41:1}((('::111:1441))",
"4:}:(:|||||||2224441)122|||f|1:::||:443||||||||4)::::)+++++++++++++++++++++:)(1:14441)11)}1424441))(:44)}}:)11)}'//':)11111)1))1",
"1::1:1|||44||222224}')44||22:<1:}44}11|4||||||||)(:)13+++++++++++++++++++++::'':44:44:11::4433441)1::44)::'})1}''''}:41)1:))))))",
"1:}:111224||||22|2|1:))114|4:1:(:::1:1|||||44444}:))11+++++++++++++++++++++)<(~))))41411)))433434:1::)1)):::}''''}}})):::)114411",
")}}}:414|4||||22|||41|44111))))(1(:[44|||4):::)))|4111+++++++++++++++++++++)1:1)::1144)))113222311::::4)))1)}'/':1:)1):}14444411",
"1}(::::)44|43|222|4442||2|):1)):411143|4))1:)43|4411|4+++++++++++++++++++++111:1)11)14::)443|||31)1)141}})4)'''}:))1|4):))114111",
")}:::<}114|44||2||44||444|411:)):))13|4::11:)4|||311|1+++++++++++++++++++++44114134)))}}13|33|241))1444}:)1)':4:):1441)11))1111)",
")}))::}:144||||3|34||1114|)::::::):1341:1434::4||4141)+++++++++++++++++++++44444141)}:/}144333||41)1434)))1:::1)))44:1)411111)1)",
":})1)}}})44|2241414441)444:<4[:::))141:14|331}:114||44+++++++++++++++++++++||4|41|)}'//:1)4|114|34))3||1)1)::)4))1|411)1)43341):",
":)})1:)1:|142|44|1)4|3:(141:141)::):):144||44))(:4|||4+++++++++++++++++++++||4|4)1)'(/':44)1))1341)}144:::)}1)))14|4)1)1143331):",
"41}:1)122:))433|3))43|4:(:41:)11)):'}1443333|1}(/13|||+++++++++++++++++++++|||44441'//})3|4)1)))1))}}111):)414):))444):143|31:1)",
"|1:)1:1|5|(:13||4::1||1::~44::11)::1143334341}//')4344+++++++++++++++++++++|4||411)'/})13||4):'}1))41)4|44114141:)14)::14411))):",
"|:)14114||1:11441}:13|:{(:141111::)1444|3||41:'/')434|+++++++++++++++++++++|4|4|))}((:13||334)}})))4111344311414)))1)))141)1141)",
"|311)|411431))))}::14|({::1111))1:)4114433344)}(})13||+++++++++++++++++++++|3:|1}}'(})4|33|||1}):::3111313|114441)11))14))14444)",
"|34)424114341:''''})43('|1:1)1::1))))144444|4):'})1444+++++++++++++++++++++11|1)}'}}}1|44|4|1::)}:}441114444444441)4:)34):)111))",
"34144|)14314|://'('})|:}111111:111))144|44441(}:::1111+++++++++++++++++++++)<(}:'}}})[4||4||4||4)))4341))444444444)}:)))14444441",
"411:11}114333:////('<|4111144~1141))111111111'}}:)1111+++++++++++++++++++++)((::}''})4||3:243|231))1341)14444444441:'}})44441441",
"3341)441||31:'}'(('''):)14111:1:::::11)))))):}'''})111+++++++++++++++++++++:}}:1)({{(14|3||44)331)::411))||44333333:::1144||||41",
"||41143)144)'':}''}}}:::111111:~:(:::1}:}}}}:((/{'))))+++++++++++++++++++++}}}:1'(/{(:4|2|2|11431):::11))1333|||||4)')4|33||4111",
"44[))44)1|)'(''''}}):)::~:1441:1::::::''''<}:(//{(:1(:+++++++++++++++++++++<}:::((({]})4441113|24:}::444))32|22|||4))|3||3441))1",
"444):14)1|)(('::'':~~1::::)1414111:}1}''''(}<('(((4/}{+++++++++++++++++++++<}:1((((/{<)144::132|1}}}:4||1)3|2222||1142|||2241))1",
")))::)1)14:/('::::'::1~:(1144144~~::)}'''('}:~((::1(:/+++++++++++++++++++++}::1::/]/'()111~11324:}1):|||413|22222311422|||f31:)1",
")::}:4)):)'/(('::):'11)::134414111~:~)}}:}::::((::1:{1+++++++++++++++++++++1:<11'{{''{141111|||1):1)1|||343|222231)1|52||2241):)",
"444344:)))''(':111)::1):1144144114:)11))):}((<(:1:::(1+++++++++++++++++++++{:43){(}:}'1:144142|1}}:111224||||22|1)}1|22|||34))):",
"|44444))2)}}'1111[4)'11114444434434111111)}'({(:::14::+++++++++++++++++++++{:441((}::(:14144||2:}}}:414|4||||224}:}||4|244114)))",
"34441))121/(::4|1431:144444444434434144111)'/]{(:111::+++++++++++++++++++++(:11::(((::14)144|421}}}}::)44|43|23)'}1|2||2|1))1))4",
"33|4):143[::::441131:)444444433334334[4441)}'/{(::~:::+++++++++++++++++++++:11:<:4:/:111114|4321}::}}}114|44|4):'})||33431)):)14",
"|||1}444|1:1::44)141:})44444333|33|3344441:''{(''':11:+++++++++++++++++++++:11::11:(:111411|13|1}:4:}}:144||3)'}}})1114441:::)14",
"444:::14|:(111414441:':)4444343|33||333441:}:(((:(::1)+++++++++++++++++++++:::((:':'111414414}4)}:11}}))34|31:}}))41)11111)4[114",
"41)}'})44::)1444||1)::':)443333|3331)14411)):::(::11)1+++++++++++++++++++++(:::('('14:41113|443:}}[4):1:|134):))43|331))11114111",
"11:}/})14:::113|41)44)}':433444441):}:11::::}::(:11)):+++++++++++++++++++++((:~~'(1|4~~::}|43|||)}:11422::)))1433|2||1))141))111",
":11)::}):::41[|4)13|34:}''::':))11)}}}}::::}}:::1)1)14+++++++++++++++++++++:((::::111:::11||||f2)})411|54(':133|||2|31)}~11):111",
")141))1)):11~431)4|||31)'}'':)))141:}''}:::1:::))11)14+++++++++++++++++++++1(<:::111:'::1|2|432|:)1|114|1}/}1|||4|||3))):141111:",
"4141)111)1[(:43)4||||221}11114444334)}::)111)):11)1114+++++++++++++++++++++4:::::(14::144||4432|3)14|4:1)}/':32|||2|31)))1111))1",
":14411)}':~114314||||2241|33333343334)}:)4411)))111444+++++++++++++++++++++1::)1:(}):1444|3443||31)124)))}(':134||2|31))111)1::1",
"::)11)/}':1314113||||||41333334441441):')4441111444444+++++++++++++++++++++1111:((:::11444|443|341111))):}'}:)4433||3414|41[14|4",
")1111)}))34344)44|||2|3114|3||41414141):)4333341333331+++++++++++++++++++++411(14{:411444434333411)))})1:<'}})114333333441111114",
"11141):)411|411433||2|3):44||4441:14414))133|3433|||34+++++++++++++++++++++|4/4<1:::11:1:4333|||31)1)11|:}}'}}:)[133333411111114",
"<<::::'(<'':::<:~~)))~:<<:'<[:<<<<<<<<:<'<~)):<<:~~~~)+++++++++++++++++++++)://{'''''':''<:~)[[[):<<:<:<'((///'<:<~~~~~~<<<<}}:<",
"-----------;----;>>;--#-;--------#-----;;;;;;----,---;+++++++++++++++++++++---#----------------;----;>>;--#-;--------#-----;;;;;",
"$@@@;#@&@####-;;>;>;-#@@##@@&@@@@'$&@@#-;;;;;#$@@@;@##+++++++++++++++++++++#)&@@@##@$@@@;#@&@####-;;>;>;-#@@##@@&@@@@'$&@@#-;;;;",
"$&&@;#@@@@##--;;;;;--&###@$@@@@#@$$&@#--;-;;--&@;###-;+++++++++++++++++++++#@&#@$@#@$&&@;#@@@@##--;;;;;--&###@$@@@@#@$$&@#--;-;;",
"$*&&&&&&&&@@@@@@#@@&&@&&&*!~&&&&&&&$&@@@@#####&&@#@&##+++++++++++++++++++++&&$&***&&$*&&&&&&&&@@@@@@#@@&&@&&&*!~&&&&&&&$&@@@@###"};
